<?xml version="1.0" encoding="UTF-8"?>
<svg version="1.1" xmlns="http://www.w3.org/2000/svg" width="2172" height="724">
<path d="M0 0 C716.76 0 1433.52 0 2172 0 C2172 238.92 2172 477.84 2172 724 C1455.24 724 738.48 724 0 724 C0 485.08 0 246.16 0 0 Z " fill="#010B16" transform="translate(0,0)"/>
<path d="M0 0 C1.80396395 0.00254027 3.6079372 0.00111052 5.41189575 -0.00398254 C10.29850823 -0.00656135 15.18312613 0.04628933 20.06927562 0.10918307 C25.17942697 0.16550609 30.28962582 0.17073638 35.40003967 0.18141174 C45.07234752 0.20936726 54.74373811 0.28319788 64.41564232 0.37355715 C75.42876635 0.47420968 86.44193456 0.52365188 97.45540416 0.56881607 C120.10639294 0.66284971 142.75612454 0.82787505 165.40649414 1.02172852 C165.40649414 15.21172852 165.40649414 29.40172852 165.40649414 44.02172852 C160.54616455 43.98917969 155.68583496 43.95663086 150.67822266 43.9230957 C134.62088388 43.82431082 118.56390051 43.7908767 102.50627232 43.79113388 C92.77018794 43.789694 83.03512268 43.76592276 73.29931641 43.68920898 C64.81146852 43.62238562 56.32471954 43.59784007 47.83662933 43.62363362 C43.34348893 43.63582209 38.85261626 43.62713282 34.35980415 43.56777191 C30.12582682 43.51249985 25.89556979 43.51399509 21.66149712 43.5580349 C20.11232767 43.56432558 18.56291417 43.55030913 17.01416016 43.51388741 C8.06826962 43.28556215 8.06826962 43.28556215 0.5313549 47.6563797 C-1.83522554 50.5852143 -3.71286526 53.76235 -5.59350586 57.02172852 C-6.55727866 58.31224567 -7.53968491 59.58978438 -8.56225586 60.83422852 C-8.98321533 61.36540283 -9.4041748 61.89657715 -9.83789062 62.44384766 C-10.25224365 62.96454834 -10.66659668 63.48524902 -11.09350586 64.02172852 C-15.26704897 69.30022649 -19.33854865 74.64484002 -23.35913086 80.04125977 C-25.68143127 83.13901364 -28.0383294 86.20866693 -30.40600586 89.27172852 C-34.22622772 94.21466154 -37.98227671 99.20256414 -41.71850586 104.20922852 C-45.61664586 109.4297101 -49.59105258 114.56675555 -53.69116211 119.63110352 C-56.52820584 123.19634123 -59.22755669 126.86110042 -61.94506836 130.51782227 C-64.00721388 133.26870809 -66.11791293 135.97852367 -68.24194336 138.68188477 C-68.87729004 139.49141602 -69.51263672 140.30094727 -70.16723633 141.13500977 C-71.43618456 142.74845573 -72.70856643 144.35920801 -73.98461914 145.96704102 C-74.56711426 146.70825195 -75.14960938 147.44946289 -75.74975586 148.21313477 C-76.53576172 149.20615601 -76.53576172 149.20615601 -77.33764648 150.21923828 C-78.77901475 152.10681114 -78.77901475 152.10681114 -79.59350586 155.02172852 C-78.7156436 156.84024765 -78.7156436 156.84024765 -77.26928711 158.65454102 C-76.74133545 159.36940674 -76.21338379 160.08427246 -75.66943359 160.82080078 C-75.08750244 161.58835693 -74.50557129 162.35591309 -73.90600586 163.14672852 C-72.69416155 164.78277597 -71.48324454 166.41951064 -70.27319336 168.05688477 C-69.65541016 168.88720215 -69.03762695 169.71751953 -68.40112305 170.57299805 C-65.72092171 174.20379484 -63.12257287 177.88989462 -60.53100586 181.58422852 C-59.54020497 182.9918401 -58.54931943 184.3993921 -57.55834961 185.80688477 C-57.06963379 186.50185059 -56.58091797 187.19681641 -56.07739258 187.9128418 C-53.58701812 191.45214001 -51.08998738 194.98673664 -48.59350586 198.52172852 C-45.60196237 202.75772298 -42.61171758 206.9945946 -39.62866211 211.23657227 C-33.96054914 219.29125911 -28.2387343 227.30355326 -22.45800781 235.27783203 C-18.24776167 241.0934828 -14.09613982 246.94850606 -9.98999023 252.83813477 C-9.09718594 254.11209285 -8.18897748 255.37540625 -7.26506042 256.62698364 C-5.59350586 259.02172852 -5.59350586 259.02172852 -3.87336731 262.01364136 C0.18415679 268.5169183 0.18415679 268.5169183 6.79989624 272.11654663 C10.8948772 272.50590071 14.83729431 272.53183886 18.94165039 272.41235352 C20.43095313 272.41240994 21.92026417 272.41776746 23.40953064 272.42816162 C27.30243702 272.44126667 31.19103075 272.38306941 35.08312988 272.30926514 C39.7669474 272.23557499 44.45123775 272.25173024 49.13552094 272.25257874 C56.22854848 272.24392586 63.31150396 272.1222296 70.40649414 272.02172852 C70.40649414 286.87172852 70.40649414 301.72172852 70.40649414 317.02172852 C48.22632258 317.42281661 48.22632258 317.42281661 38.75610352 317.51000977 C32.29880394 317.56974484 25.84292503 317.64032654 19.38671875 317.77612305 C14.17999311 317.88495059 8.97479078 317.94460453 3.76701546 317.97050095 C1.78251217 317.98894912 -0.20190956 318.02497795 -2.18576241 318.07902908 C-17.7453926 318.48601703 -17.7453926 318.48601703 -22.3054657 314.8730011 C-24.11774067 312.31359146 -25.35908503 309.89495236 -26.59350586 307.02172852 C-27.52312057 305.63343299 -28.48033281 304.2626403 -29.48022461 302.92407227 C-30.16568359 301.9534082 -30.16568359 301.9534082 -30.86499023 300.96313477 C-31.33227539 300.3018457 -31.79956055 299.64055664 -32.28100586 298.95922852 C-33.32658421 297.4787636 -34.37215696 295.99829474 -35.41772461 294.51782227 C-35.94414551 293.77258301 -36.47056641 293.02734375 -37.01293945 292.25952148 C-39.04396499 289.38396077 -41.07419195 286.50783696 -43.10424805 283.6315918 C-44.10083938 282.21969961 -45.09758534 280.80791655 -46.09448242 279.39624023 C-48.58545891 275.8685708 -51.07421908 272.33937899 -53.55834961 268.80688477 C-59.17862842 260.82031878 -64.85414428 252.877932 -70.59057617 244.97436523 C-74.72256988 239.26611067 -78.76016842 233.49613644 -82.78100586 227.70922852 C-87.39124409 221.08090948 -92.13966396 214.63245372 -97.11303711 208.27172852 C-100.52986659 203.84978743 -103.70768608 199.2584741 -106.91333008 194.68261719 C-112.71821952 186.39826634 -118.65315537 178.20923789 -124.59350586 170.02172852 C-125.23690918 169.13420898 -125.23690918 169.13420898 -125.89331055 168.22875977 C-130.02046351 162.48413689 -130.02046351 162.48413689 -134.30444336 156.85766602 C-135.59350586 155.02172852 -135.59350586 155.02172852 -135.59350586 153.02172852 C-134.93350586 153.02172852 -134.27350586 153.02172852 -133.59350586 153.02172852 C-133.36405273 152.31661133 -133.13459961 151.61149414 -132.89819336 150.88500977 C-131.34512252 147.47662376 -129.18685332 144.97103697 -126.71850586 142.20922852 C-122.45976181 137.31549553 -118.45371148 132.29786564 -114.59350586 127.08422852 C-110.84728027 122.02866006 -107.0621781 117.01748218 -103.15600586 112.08422852 C-99.14733742 107.01756646 -95.19717571 101.9102323 -91.28100586 96.77172852 C-85.03237966 88.5764435 -78.7135907 80.43734646 -72.37719727 72.30981445 C-61.17449537 57.93919823 -49.97873965 43.56985056 -39.06494141 28.97802734 C-34.29978496 22.61347452 -29.4640227 16.30601579 -24.59350586 10.02172852 C-24.21337562 9.28205369 -23.83324537 8.54237886 -23.44159603 7.78028965 C-18.00604947 -1.49713763 -9.5408402 -0.18763605 0 0 Z " fill="#C2DDFB" transform="translate(349.593505859375,207.978271484375)"/>
<path d="M0 0 C104.18019802 0 104.18019802 0 125.0625 19.97265625 C137.34134208 33.28355618 140.17033733 48.44158712 140.25 65.9375 C140.2809375 67.63036133 140.2809375 67.63036133 140.3125 69.35742188 C140.34417137 76.16280692 139.70926207 81.73951807 137 88 C136.5978125 88.94488281 136.195625 89.88976562 135.78125 90.86328125 C129.36957346 103.11974829 121.04256918 111.22369099 108.87109375 117.4765625 C105.96662939 118.83791064 105.96662939 118.83791064 104 121 C104.3623877 121.57854736 104.72477539 122.15709473 105.09814453 122.75317383 C117.16399545 142.04586673 117.16399545 142.04586673 121.87890625 151 C123.02219446 153.16706143 123.02219446 153.16706143 125 155.5 C126.86922244 157.83652805 128.11209696 159.98637039 129.5 162.625 C132.96214716 169.17258402 136.98063366 175.34444129 141.03710938 181.53759766 C141.54822266 182.32956543 142.05933594 183.1215332 142.5859375 183.9375 C143.0504834 184.64777344 143.5150293 185.35804688 143.99365234 186.08984375 C145 188 145 188 145 191 C132.79 191 120.58 191 108 191 C105.64875 186.875 103.2975 182.75 100.875 178.5 C94.92922927 168.08236385 88.93719423 157.69362737 82.87060547 147.34570312 C82.34611816 146.45044922 81.82163086 145.55519531 81.28125 144.6328125 C80.46817383 143.30419189 80.46817383 143.30419189 79.63867188 141.94873047 C78.38114678 139.68585978 77.43122897 137.63335176 76.50195312 135.24267578 C74.78284736 131.13560687 73.15958045 128.20905313 70 125 C63.86472393 122.64336984 56.92796796 123.37189199 50.5 123.625 C44.395 123.74875 38.29 123.8725 32 124 C32 146.11 32 168.22 32 191 C21.44 191 10.88 191 0 191 C0 127.97 0 64.94 0 0 Z " fill="#00A680" transform="translate(1243,283)"/>
<path d="M0 0 C8.97258943 6.91131889 15.2454306 14.91673375 20.0625 25.125 C20.5265625 26.09566406 20.990625 27.06632812 21.46875 28.06640625 C29.33016907 45.59462843 29.07598107 65.20814256 22.33105469 83.06103516 C14.82992785 101.07789264 0.96425922 114.65551145 -16.9375 122.125 C-36.47343628 129.4918897 -58.16634975 128.07636049 -77.00390625 119.7734375 C-83.97174333 116.30405548 -89.44681006 111.58894956 -94.9375 106.125 C-95.7109375 105.38636719 -96.484375 104.64773438 -97.28125 103.88671875 C-110.83684121 90.07579963 -116.13815308 71.45954227 -116.03833008 52.48925781 C-115.25995726 34.23801726 -106.74378268 16.89311194 -93.9375 4.125 C-66.21093201 -20.17233937 -29.65276143 -20.36046154 0 0 Z " fill="#C2DCFA" transform="translate(1036.9375,350.875)"/>
<path d="M0 0 C17.14708448 10.40794202 26.56355888 24.38271214 32.125 43.3125 C34.08725058 53.12375291 33.125 63.30694599 33.125 73.3125 C0.455 73.3125 -32.215 73.3125 -65.875 73.3125 C-58.72847557 92.01151482 -58.72847557 92.01151482 -43.5 103.75 C-34.42440925 107.02846922 -19.81496995 107.18648698 -10.875 103.3125 C-4.75142299 99.78680415 -0.28945549 94.74779833 4.125 89.3125 C7.06482992 89.91205469 9.12514294 90.78641737 11.5859375 92.4921875 C12.22273438 92.92660156 12.85953125 93.36101562 13.515625 93.80859375 C14.17046875 94.26363281 14.8253125 94.71867187 15.5 95.1875 C19.92345071 98.24514422 24.23411694 101.02605003 29.125 103.3125 C27.01179871 109.58501811 22.65022395 113.63643525 18.125 118.3125 C17.5784375 118.88484375 17.031875 119.4571875 16.46875 120.046875 C2.676489 133.13544921 -16.23854865 135.1194082 -34.3046875 134.65625 C-52.76110327 133.7830164 -68.33283218 125.50670712 -80.875 112.3125 C-89.22354692 103.09067411 -95.98640443 89.75686505 -96.0625 77.125 C-95.9696875 75.7328125 -95.9696875 75.7328125 -95.875 74.3125 C-96.535 74.3125 -97.195 74.3125 -97.875 74.3125 C-97.93378077 70.66673608 -97.9688558 67.02109648 -98 63.375 C-98.01675781 62.35341797 -98.03351563 61.33183594 -98.05078125 60.27929688 C-98.16635729 42.19164704 -90.84523123 26.05778505 -78.25 13.125 C-68.86398449 3.8955658 -58.59208975 -1.31187302 -45.875 -4.6875 C-44.92109375 -5.04328125 -43.9671875 -5.3990625 -42.984375 -5.765625 C-29.56106178 -9.74540128 -12.24217179 -6.24281203 0 0 Z " fill="#00A680" transform="translate(1492.875,342.6875)"/>
<path d="M0 0 C12.83550196 9.50847936 17.9513968 21.17967794 20.63865662 36.44100189 C21.75035909 44.31396883 21.48077281 52.29633437 21.390625 60.2265625 C21.38314065 62.19623228 21.37745814 64.16590963 21.37347412 66.1355896 C21.35839013 71.25493883 21.31926267 76.37381524 21.2746582 81.49298096 C21.23332785 86.74265146 21.21538346 91.9924003 21.1953125 97.2421875 C21.1527469 107.49503008 21.08254399 117.74740129 21 128 C11.1 128 1.2 128 -9 128 C-9 122.72 -9 117.44 -9 112 C-9.66 112 -10.32 112 -11 112 C-11.25910156 112.59039062 -11.51820312 113.18078125 -11.78515625 113.7890625 C-15.95873659 121.38471032 -25.87446131 127.10975435 -33.93676758 129.59765625 C-47.02055453 132.89102436 -64.86637429 133.56475897 -77 127 C-79.92237351 125.23025548 -82.46084273 123.28084473 -85 121 C-85.61617187 120.47535156 -86.23234375 119.95070313 -86.8671875 119.41015625 C-92.39795506 114.36600128 -97.5144977 106.75540907 -98.16113281 99.08984375 C-98.64818942 74.12536086 -98.64818942 74.12536086 -90.05859375 64.125 C-82.21911363 56.03263343 -73.73298153 51.2680891 -63 48 C-62.1330249 47.72712158 -61.2660498 47.45424316 -60.37280273 47.1730957 C-49.88477564 44.2940793 -39.47880579 44.66367377 -28.6875 44.8125 C-26.77149495 44.82758155 -24.85547836 44.84126378 -22.93945312 44.85351562 C-18.29267831 44.88622909 -13.64647005 44.93781747 -9 45 C-9.42795955 42.5858113 -9.86993308 40.17564293 -10.3203125 37.765625 C-10.43930908 37.08580566 -10.55830566 36.40598633 -10.6809082 35.70556641 C-11.75699488 30.04665689 -13.53711642 26.58175016 -18 23 C-18.7425 22.401875 -19.485 21.80375 -20.25 21.1875 C-31.19419419 16.46159796 -42.96303669 16.96592006 -54 21 C-59.71200694 23.96584976 -65.08711657 29.17423314 -68 35 C-71.99127183 33.22831325 -75.41637807 30.67029994 -78.9375 28.125 C-79.54529297 27.69058594 -80.15308594 27.25617188 -80.77929688 26.80859375 C-84.26901805 24.30141543 -87.66927835 21.71766662 -91 19 C-87.5781634 7.70793923 -75.99943454 1.30340955 -66.21484375 -3.94140625 C-45.55322372 -13.81671318 -19.05502949 -13.00396669 0 0 Z " fill="#00A580" transform="translate(1782,346)"/>
<path d="M0 0 C10.84714655 8.61945452 16.17265729 20.43405344 18 34 C18.52139407 41.26131766 18.35075505 48.55757819 18.29296875 55.83203125 C18.28736261 57.92095126 18.28309733 60.00987526 18.28010559 62.09880066 C18.26873694 67.55513703 18.23933974 73.01122786 18.20599365 78.46746826 C18.17511934 84.05184611 18.1615634 89.63626424 18.14648438 95.22070312 C18.11446128 106.14725979 18.06175987 117.07357091 18 128 C8.1 128 -1.8 128 -12 128 C-12.0093457 125.37611328 -12.01869141 122.75222656 -12.02832031 120.04882812 C-12.06214134 111.36346743 -12.11771889 102.67834304 -12.18390274 93.99317169 C-12.2233519 88.72915937 -12.25555303 83.4653137 -12.27099609 78.20117188 C-12.28617942 73.11757191 -12.32065505 68.03443017 -12.36830902 62.95103455 C-12.38310548 61.01509085 -12.39104002 59.07908172 -12.39188385 57.14308167 C-12.39426048 54.42367134 -12.42139568 51.7055202 -12.45410156 48.98632812 C-12.4490712 48.19222534 -12.44404083 47.39812256 -12.43885803 46.57995605 C-12.59215395 38.30031207 -16.33512445 31.77018424 -21.90234375 25.765625 C-28.43231821 20.26925916 -36.57269965 19.33980427 -44.84765625 19.60546875 C-49.65377414 20.20697793 -53.73275027 21.75368368 -58 24 C-58.84175781 24.44214844 -59.68351562 24.88429688 -60.55078125 25.33984375 C-63.30073529 27.20384768 -64.80382987 29.02396951 -66.6875 31.75 C-67.26886719 32.56984375 -67.85023437 33.3896875 -68.44921875 34.234375 C-71.75925351 40.13740928 -72.30009717 45.90623228 -72.31884766 52.50561523 C-72.32889328 53.32593735 -72.3389389 54.14625946 -72.34928894 54.99143982 C-72.37997495 57.68048454 -72.39711522 60.36943037 -72.4140625 63.05859375 C-72.4327859 64.93189842 -72.45236018 66.80519476 -72.4727478 68.67848206 C-72.5239512 73.5922249 -72.56363989 78.50599506 -72.60089111 83.41986084 C-72.64100487 88.44078257 -72.69206351 93.46159186 -72.7421875 98.48242188 C-72.83880716 108.32154323 -72.92224405 118.16071147 -73 128 C-83.23 128 -93.46 128 -104 128 C-104 83.45 -104 38.9 -104 -7 C-93.77 -7 -83.54 -7 -73 -7 C-72.505 0.92 -72.505 0.92 -72 9 C-70.72125 7.63875 -69.4425 6.2775 -68.125 4.875 C-49.29900106 -13.77532866 -21.61412845 -14.70550292 0 0 Z " fill="#C1DBF8" transform="translate(1189,346)"/>
<path d="M0 0 C18.46388739 0.05496738 34.29036555 6.10450306 48.25 18.25 C49.260625 19.054375 50.27125 19.85875 51.3125 20.6875 C51.951875 21.203125 52.59125 21.71875 53.25 22.25 C50.99833618 27.44159654 46.88046888 30.69740646 42.8125 34.5 C41.64750977 35.61761719 41.64750977 35.61761719 40.45898438 36.7578125 C39.71068359 37.46164062 38.96238281 38.16546875 38.19140625 38.890625 C37.50763916 39.53547852 36.82387207 40.18033203 36.11938477 40.84472656 C34.25 42.25 34.25 42.25 31.25 42.25 C30.693125 41.54875 30.13625 40.8475 29.5625 40.125 C23.53632892 32.63300352 16.69013805 29.61001989 7.25 28.25 C-0.63607397 27.68155302 -8.3195058 27.33520118 -15.125 31.8125 C-17.48851711 35.35777567 -17.97357905 39.01690324 -17.75 43.25 C-16.82798214 46.05749258 -16.07182047 47.04046941 -13.578125 48.6640625 C-12.72734375 49.06367188 -11.8765625 49.46328125 -11 49.875 C-10.15953125 50.27976562 -9.3190625 50.68453125 -8.453125 51.1015625 C-3.08660714 53.38155708 2.20692522 54.70300958 7.9375 55.6875 C22.93353149 58.44686559 40.34489077 62.99120807 49.66796875 76.26953125 C55.42434919 85.90851433 58.13313242 96.58486167 55.7109375 107.73046875 C55.0083484 109.97334934 54.18237914 112.09336651 53.25 114.25 C52.99476562 114.91515625 52.73953125 115.5803125 52.4765625 116.265625 C47.81709299 127.12347138 38.65082993 132.65918505 28.25 137.25 C27.63833984 137.58177246 27.02667969 137.91354492 26.39648438 138.25537109 C18.95788435 141.7022383 9.98486623 141.60892974 1.9375 141.5625 C0.93638184 141.55831055 -0.06473633 141.55412109 -1.09619141 141.54980469 C-19.00196417 141.27811096 -35.3441885 135.78036496 -48.3125 123 C-50.42487142 120.80418772 -52.04875698 118.80186454 -53.75 116.25 C-53.54522213 113.6493211 -53.00235551 112.5203809 -51.21875 110.609375 C-50.24421875 109.81273437 -50.24421875 109.81273437 -49.25 109 C-46.88742065 107.04534802 -44.58601746 105.09459171 -42.359375 102.984375 C-41.58078125 102.24703125 -40.8021875 101.5096875 -40 100.75 C-39.28328125 100.0590625 -38.5665625 99.368125 -37.828125 98.65625 C-35.75 97.25 -35.75 97.25 -33.6953125 97.3046875 C-31.29804907 98.46962274 -30.10413523 99.8485474 -28.375 101.875 C-22.31526366 108.23256837 -12.34838401 113.89713216 -3.52734375 114.453125 C5.51466513 114.56350558 13.5327852 114.33063007 21.3125 109.25 C23.96720294 106.50966149 24.22735533 104.65760414 24.4375 100.875 C24.25274958 97.30315852 23.90400544 95.37478274 22.25 92.25 C15.09919535 86.90888932 6.43146799 85.15905009 -2.09765625 83.3046875 C-17.42227074 79.92846795 -33.56347022 76.12577365 -43.75 63.25 C-49.68380209 53.83776221 -51.36688711 43.60396373 -48.98046875 32.75 C-45.09308994 20.22247536 -37.38745953 11.83712089 -25.9296875 5.6171875 C-21.48105631 3.70438539 -17.01854747 2.64790095 -12.26953125 1.7578125 C-3.60246125 0.01096118 -3.60246125 0.01096118 0 0 Z " fill="#00A680" transform="translate(1878.75,335.75)"/>
<path d="M0 0 C10.16598296 7.24995101 10.16598296 7.24995101 13.16796875 11.75292969 C12.39453125 12.45417969 11.62109375 13.15542969 10.82421875 13.87792969 C9.77172086 14.83580771 8.71966804 15.79417491 7.66796875 16.75292969 C6.85126709 17.49700073 6.85126709 17.49700073 6.01806641 18.25610352 C2.10557218 21.84130588 -1.65280098 25.5410396 -5.30859375 29.38964844 C-6.83203125 30.75292969 -6.83203125 30.75292969 -8.83203125 30.75292969 C-10.05859375 29.39746094 -10.05859375 29.39746094 -11.45703125 27.56542969 C-16.43708556 21.56755406 -24.21733623 16.47055618 -32.07836914 15.46582031 C-34.52418741 15.35153677 -36.94644189 15.34331413 -39.39453125 15.37792969 C-40.63106445 15.36052734 -40.63106445 15.36052734 -41.89257812 15.34277344 C-47.81742627 15.37118998 -51.87289639 16.45420261 -56.65234375 20.16699219 C-58.95781121 23.26639546 -58.93783539 26.99688268 -58.83203125 30.75292969 C-57.13444417 35.09120778 -54.8615116 36.61472354 -50.83203125 38.75292969 C-48.60507425 39.47422241 -46.35064377 40.11336995 -44.08203125 40.69042969 C-43.43371338 40.85881348 -42.78539551 41.02719727 -42.11743164 41.20068359 C-38.61306934 42.09923803 -35.09874786 42.92339162 -31.5625 43.68652344 C-15.38491321 47.20258975 0.29180384 52.52617123 10.16796875 66.75292969 C15.01179373 76.10652275 15.72126467 88.53974602 13.16796875 98.75292969 C6.94823351 112.0396706 -1.37802231 120.03216277 -14.96484375 125.75292969 C-31.31429263 131.45518979 -53.77122266 131.28210113 -69.83203125 124.75292969 C-70.49203125 124.09292969 -71.15203125 123.43292969 -71.83203125 122.75292969 C-72.86328125 122.34042969 -73.89453125 121.92792969 -74.95703125 121.50292969 C-79.47403223 119.6490772 -83.03924308 116.77755822 -86.83203125 113.75292969 C-87.73953125 113.07230469 -88.64703125 112.39167969 -89.58203125 111.69042969 C-92.07786968 109.54123549 -94.03399223 107.51914356 -95.83203125 104.75292969 C-95.65193808 101.84742647 -94.87958127 100.80312138 -92.86328125 98.67480469 C-91.6103125 97.59972656 -91.6103125 97.59972656 -90.33203125 96.50292969 C-89.43742188 95.725625 -88.5428125 94.94832031 -87.62109375 94.14746094 C-86.70070313 93.35726562 -85.7803125 92.56707031 -84.83203125 91.75292969 C-83.12102628 90.23510269 -81.4124759 88.71450165 -79.70703125 87.19042969 C-78.41565085 86.04427373 -77.12409767 84.89831224 -75.83203125 83.75292969 C-72.44868574 84.88071152 -71.85502186 85.71652855 -69.70703125 88.44042969 C-63.73365429 95.45757567 -55.6854405 100.81746383 -46.40844727 102.08374023 C-43.88115044 102.26561136 -41.3648586 102.37234293 -38.83203125 102.44042969 C-37.96191406 102.47458984 -37.09179688 102.50875 -36.1953125 102.54394531 C-34.0746431 102.62550952 -31.95336234 102.69091497 -29.83203125 102.75292969 C-29.83203125 102.09292969 -29.83203125 101.43292969 -29.83203125 100.75292969 C-28.59453125 100.34042969 -27.35703125 99.92792969 -26.08203125 99.50292969 C-22.48233384 98.11401989 -20.01496264 97.07098541 -17.83203125 93.75292969 C-16.67894566 89.48491151 -16.33228175 86.03006729 -17.95703125 81.87792969 C-20.02393342 79.53544057 -22.13185528 78.285462 -24.83203125 76.75292969 C-24.83203125 76.09292969 -24.83203125 75.43292969 -24.83203125 74.75292969 C-25.49847656 74.64335937 -26.16492188 74.53378906 -26.8515625 74.42089844 C-32.73404083 73.40894762 -38.41868931 72.10317024 -44.15625 70.46386719 C-46.66870992 69.79632309 -49.14631799 69.31643632 -51.70703125 68.87792969 C-64.92277666 66.29771273 -78.10938946 60.19578098 -85.83203125 48.75292969 C-91.29553323 38.21617586 -92.15806158 27.10670863 -88.83203125 15.75292969 C-84.12706984 4.24767992 -74.89691362 -3.11119659 -63.83203125 -8.24707031 C-42.42527089 -16.24805351 -18.81378607 -12.80661237 0 0 Z " fill="#C0DBF9" transform="translate(892.83203125,348.2470703125)"/>
<path d="M0 0 C0.70382812 0.21140625 1.40765625 0.4228125 2.1328125 0.640625 C17.05575816 5.20529073 30.5018967 13.65648692 39 27 C37.54230743 30.64423143 35.75750053 32.12643953 32.5 34.25 C27.76529712 37.41104982 23.44247443 40.88255812 19.12890625 44.59375 C18.42636719 45.0578125 17.72382812 45.521875 17 46 C13.42322558 44.80774186 12.92277284 43.77756483 10.8125 40.75 C4.49778193 32.46193253 -2.8533966 29.71567402 -13 28 C-22.71848471 27.02357453 -31.87663455 29.64310576 -40 35 C-48.94088852 42.86230515 -54.34328422 52.6034197 -55.2734375 64.49609375 C-55.59640702 77.02979554 -53.37674667 88.28313916 -44.9453125 98.1015625 C-37.46429975 105.40230988 -29.09579181 109.07726579 -18.6875 109.375 C-7.58644304 109.0511652 0.91153966 106.83320321 9 99 C11.12485001 96.73437318 13.06287185 94.43382768 15 92 C17.7297478 93.30662973 20.222572 94.74609846 22.71484375 96.4609375 C23.40126953 96.93273437 24.08769531 97.40453125 24.79492188 97.890625 C25.50197266 98.38046875 26.20902344 98.8703125 26.9375 99.375 C27.64068359 99.85710937 28.34386719 100.33921875 29.06835938 100.8359375 C32.82824905 103.4294509 36.47498677 106.08893232 40 109 C33.92687578 122.75942205 19.29274672 130.73396589 6 136 C-7.94432549 141.32165076 -25.61509259 140.39896546 -40 137 C-40 136.34 -40 135.68 -40 135 C-41.04994141 135.08701172 -41.04994141 135.08701172 -42.12109375 135.17578125 C-54.01109354 134.44979754 -64.80867092 122.69149036 -72.3515625 114.421875 C-79.26799361 106.18432783 -83.38358477 97.38389796 -86 87 C-86.20625 86.23300781 -86.4125 85.46601563 -86.625 84.67578125 C-90.89931088 66.717739 -87.66929222 47.65398077 -78.25683594 31.94042969 C-67.45453608 15.26275306 -51.34448628 3.84499632 -32.1328125 -1.3125 C-22.20054256 -3.27591393 -9.46993833 -3.83916419 0 0 Z " fill="#00A680" transform="translate(1629,338)"/>
<path d="M0 0 C10.56 0 21.12 0 32 0 C32.09052449 18.272716 32.16411188 36.54524858 32.20724869 54.8181324 C32.22781609 63.30380443 32.25582436 71.78932657 32.30175781 80.27490234 C32.34180494 87.67662981 32.36747505 95.07824863 32.37635398 102.48008144 C32.38153871 106.39417729 32.39360086 110.30796252 32.42292023 114.22195816 C32.45037311 117.91724854 32.45838584 121.6121048 32.45243073 125.30748749 C32.45403027 127.28725265 32.4753949 129.26697217 32.49768066 131.24661255 C32.42031766 148.32768316 26.6542528 163.50598558 15 176 C2.55065831 187.79853294 -12.11163314 193.49418186 -29.09082031 193.28344727 C-44.88079599 192.84666819 -58.59856973 190.3927479 -71 180 C-72.2684375 179.071875 -72.2684375 179.071875 -73.5625 178.125 C-77.04295866 175.09075399 -80.40237481 171.83280719 -83 168 C-83 164 -83 164 -81.07226562 161.61816406 C-80.19248047 160.75932617 -79.31269531 159.90048828 -78.40625 159.015625 C-77.70707458 158.32493927 -77.70707458 158.32493927 -76.99377441 157.62030029 C-75.5049818 156.15387258 -74.00288278 154.70197017 -72.5 153.25 C-71.48737217 152.25743702 -70.47564185 151.2639575 -69.46484375 150.26953125 C-66.98688309 147.83563843 -64.49679722 145.41458252 -62 143 C-59.53781494 145.42754201 -57.17348922 147.77925825 -55.03515625 150.5 C-48.4789949 158.80879854 -41.15984224 161.86533213 -30.8203125 163.50390625 C-22.98185096 163.9823578 -17.30075812 161.55463817 -11 157 C-4.40567854 150.83574298 -0.80909681 142.30864952 -0.36076355 133.36225891 C-0.32889276 130.87492042 -0.32367564 128.38714346 -0.34057617 125.8996582 C-0.33210393 124.51872827 -0.32145117 123.13781027 -0.30880737 121.75691223 C-0.28087638 118.04263649 -0.28309386 114.32894246 -0.29110122 110.61459374 C-0.29424454 106.72012495 -0.26913888 102.8258356 -0.24714661 98.93144226 C-0.20982085 91.57233746 -0.19756545 84.2134174 -0.1945222 76.85422724 C-0.18981886 68.46952093 -0.15685482 60.08499824 -0.12162435 51.70037329 C-0.04984036 34.46689271 -0.01692663 17.23363505 0 0 Z " fill="#C2DCF8" transform="translate(744,284)"/>
<path d="M0 0 C10.23 0 20.46 0 31 0 C31 11.55 31 23.1 31 35 C41.89 35 52.78 35 64 35 C64 43.91 64 52.82 64 62 C53.11 62 42.22 62 31 62 C31.09094025 73.89080473 31.09094025 73.89080473 31.20898438 85.78125 C31.26318114 90.63538654 31.31429573 95.48941077 31.34643555 100.34375 C31.37256646 104.26024073 31.41303672 108.17635138 31.46318626 112.09260559 C31.47978916 113.58196766 31.49134422 115.07139538 31.49761391 116.56083679 C31.24125594 129.52233889 31.24125594 129.52233889 37.375 140.4375 C41.83040331 143.08952578 46.14309939 143.13757857 51.25 143.125 C52.30703125 143.12757813 53.3640625 143.13015625 54.453125 143.1328125 C56.93482251 143.28828538 56.93482251 143.28828538 58 142 C59.98 142 61.96 142 64 142 C64 151.24 64 160.48 64 170 C57.10537288 171.96989346 51.79600841 172.36662187 44.75 172.375 C43.68136719 172.39949219 42.61273437 172.42398438 41.51171875 172.44921875 C29.7149789 172.49222023 20.23361982 168.91167462 11.5 160.9375 C-0.25942491 148.70874106 -0.30444495 133.91121374 -0.1953125 117.95703125 C-0.19157416 116.33607662 -0.18873107 114.7151197 -0.18673706 113.09416199 C-0.17916519 108.86426358 -0.1595735 104.63450638 -0.1373291 100.40466309 C-0.11673037 96.07383127 -0.10770559 91.74297624 -0.09765625 87.41210938 C-0.07632034 78.94133478 -0.0411922 70.47070132 0 62 C-7.26 62 -14.52 62 -22 62 C-22 53.09 -22 44.18 -22 35 C-14.74 35 -7.48 35 0 35 C0 23.45 0 11.9 0 0 Z " fill="#00A681" transform="translate(1968,304)"/>
<path d="M0 0 C4.17926967 0.83585393 6.24342019 1.47430891 9.78125 3.484375 C10.69406738 4.00032227 11.60688477 4.51626953 12.54736328 5.04785156 C13.5217334 5.60956055 14.49610352 6.17126953 15.5 6.75 C16.52464355 7.33491211 17.54928711 7.91982422 18.60498047 8.52246094 C26.05381869 12.80419411 33.37314411 17.27021715 40.65136719 21.83422852 C48.26917645 26.59429536 55.9942789 31.15724498 63.75 35.6875 C64.37644409 36.0534729 65.00288818 36.4194458 65.64831543 36.79650879 C68.68226616 38.56823211 71.7172423 40.33818777 74.75292969 42.10693359 C80.8762291 45.67686319 86.98691279 49.2679047 93.08837891 52.875 C95.17283259 54.10171297 97.26411255 55.3163466 99.35546875 56.53125 C100.75797788 57.35388477 102.16032767 58.17679129 103.5625 59 C104.53872314 59.56170898 104.53872314 59.56170898 105.53466797 60.13476562 C107.05726964 61.03438996 108.53444207 62.01016175 110 63 C110 63.66 110 64.32 110 65 C109.1234375 65.47566406 108.246875 65.95132813 107.34375 66.44140625 C97.61590547 71.78680769 88.19556475 77.56000784 78.8034668 83.47314453 C72.01169233 87.74878832 65.17749314 91.93489528 58.28125 96.0390625 C55.10712034 97.93598284 51.95704718 99.86700995 48.8125 101.8125 C42.49400605 105.7150992 36.12704076 109.53417454 29.7512207 113.34228516 C25.43359039 115.92492306 21.13099595 118.52783 16.85546875 121.1796875 C16.03844482 121.6852417 15.2214209 122.1907959 14.37963867 122.71166992 C12.82882091 123.67347287 11.28066082 124.6395785 9.7355957 125.6105957 C9.03909912 126.04202881 8.34260254 126.47346191 7.625 126.91796875 C6.71621094 127.48680786 6.71621094 127.48680786 5.7890625 128.06713867 C4 129 4 129 0 130 C0 87.1 0 44.2 0 0 Z " fill="#00A57F" transform="translate(404,298)"/>
<path d="M0 0 C8.84219596 6.71826133 13.81123478 16.06467842 16.29296875 26.7421875 C17.81985883 41.04355402 14.33639655 53.50426842 5.29296875 64.7421875 C2.47182065 67.38913092 -0.48745799 69.60600676 -3.70703125 71.7421875 C-4.53203125 72.3403125 -5.35703125 72.9384375 -6.20703125 73.5546875 C-14.68833596 77.58330724 -25.4546879 78.27479534 -34.51171875 76.0546875 C-46.80659116 71.45847351 -54.88086367 64.0165538 -60.62890625 52.3671875 C-62.9991543 46.59614876 -63.9828078 41.48011269 -63.95703125 35.2421875 C-63.9621875 33.994375 -63.96734375 32.7465625 -63.97265625 31.4609375 C-63.23543458 21.13983408 -58.13923507 10.00154937 -50.70703125 2.7421875 C-35.64490965 -9.81486545 -16.27065639 -10.39873429 0 0 Z " fill="#030C17" transform="translate(1016.70703125,372.2578125)"/>
<path d="M0 0 C11.570625 -0.0928125 11.570625 -0.0928125 23.375 -0.1875 C26.99734619 -0.22846802 26.99734619 -0.22846802 30.69287109 -0.27026367 C32.63638816 -0.27903677 34.57991081 -0.28667875 36.5234375 -0.29296875 C37.50868408 -0.30831665 38.49393066 -0.32366455 39.5090332 -0.33947754 C50.71164754 -0.34365035 60.38245318 2.61348973 68.56640625 10.51171875 C75.87869002 18.82807731 76.65622987 28.19493892 76.40234375 38.87890625 C75.87642824 46.9660269 71.90018088 53.60034245 66.0625 59.0625 C57.38501316 65.85573255 48.33439983 66.15063892 37.6953125 66.09765625 C36.73810303 66.09664917 35.78089355 66.09564209 34.79467773 66.09460449 C31.23810621 66.08939453 27.68155183 66.07543333 24.125 66.0625 C16.16375 66.041875 8.2025 66.02125 0 66 C0 44.22 0 22.44 0 0 Z " fill="#010B16" transform="translate(1275,313)"/>
<path d="M0 0 C1.04067123 0.00142502 2.08134247 0.00285004 3.15354919 0.00431824 C4.33139481 0.00124161 5.50924042 -0.00183502 6.72277832 -0.00500488 C7.99987167 0.00218063 9.27696503 0.00936615 10.59275818 0.01676941 C12.5493058 0.01745674 12.5493058 0.01745674 14.54537964 0.01815796 C17.30691341 0.01972283 20.06831756 0.02801349 22.82981873 0.04142761 C26.37655147 0.05843417 29.92314188 0.06224149 33.46991062 0.06148243 C36.84421235 0.06181905 40.218467 0.07065278 43.59275818 0.07926941 C44.87187576 0.08038223 46.15099335 0.08149506 47.46887207 0.0826416 C48.64356552 0.08902145 49.81825897 0.09540131 51.02854919 0.10197449 C52.06842484 0.10578629 53.10830048 0.10959808 54.1796875 0.11352539 C56.52635193 0.24723816 56.52635193 0.24723816 57.52635193 1.24723816 C57.62556056 3.17485633 57.65434558 5.1061317 57.65574646 7.03630066 C57.65889862 8.27428406 57.66205078 9.51226746 57.66529846 10.7877655 C57.66350868 12.14925675 57.66145773 13.51074767 57.65916443 14.87223816 C57.65983752 16.2584688 57.66080759 17.64469933 57.6620636 19.03092957 C57.66354033 21.93963238 57.66138683 24.84830453 57.65672302 27.75700378 C57.65102573 31.49320414 57.65430487 35.22933267 57.66029549 38.9655304 C57.66390178 41.82903082 57.6627622 44.69251409 57.66016769 47.55601501 C57.65949861 48.93398548 57.66032619 50.31195748 57.66264725 51.68992615 C57.66517485 53.6126757 57.66064216 55.53543068 57.65574646 57.45817566 C57.65495087 58.55436218 57.65415527 59.65054871 57.65333557 60.779953 C57.52635193 63.24723816 57.52635193 63.24723816 56.52635193 64.24723816 C54.69608021 64.35152691 52.86177737 64.3857819 51.02854919 64.39250183 C49.26650902 64.40207161 49.26650902 64.40207161 47.46887207 64.41183472 C45.55019569 64.41350395 45.55019569 64.41350395 43.59275818 64.41520691 C42.28934982 64.41853531 40.98594147 64.42186371 39.64303589 64.42529297 C36.87976758 64.43129016 34.11653058 64.43313228 31.35325623 64.43254089 C27.8076672 64.43243925 24.26227835 64.44609046 20.71673679 64.4633131 C17.34207394 64.47708829 13.96744883 64.47652139 10.59275818 64.47770691 C9.31566483 64.48489243 8.03857147 64.49207794 6.72277832 64.4994812 C4.9560099 64.49486626 4.9560099 64.49486626 3.15354919 64.49015808 C2.11287796 64.4915831 1.07220673 64.49300812 0 64.49447632 C-2.47364807 64.24723816 -2.47364807 64.24723816 -4.47364807 62.24723816 C-4.72761536 59.74235535 -4.72761536 59.74235535 -4.73243713 56.54411316 C-4.73874146 55.34947449 -4.74504578 54.15483582 -4.75154114 52.92399597 C-4.74749268 51.62816589 -4.74344421 50.33233582 -4.73927307 48.99723816 C-4.74061985 47.65967234 -4.7425605 46.32210699 -4.74507141 44.98454285 C-4.74802207 42.1801335 -4.74372701 39.37585147 -4.73439026 36.57145691 C-4.72299561 32.97318894 -4.72955541 29.3752193 -4.74153519 25.77696228 C-4.74875543 23.01463058 -4.74646513 20.25236983 -4.7412796 17.49003601 C-4.73929282 15.51684882 -4.74537649 13.5436589 -4.75154114 11.57048035 C-4.74523682 10.37584167 -4.7389325 9.181203 -4.73243713 7.95036316 C-4.73084595 6.89494324 -4.72925476 5.83952332 -4.72761536 4.75212097 C-4.37510345 1.27529123 -3.48401063 0.34822269 0 0 Z " fill="#00A680" transform="translate(554.4736480712891,330.7527618408203)"/>
<path d="M0 0 C1.73189575 -0.00945648 1.73189575 -0.00945648 3.4987793 -0.019104 C4.75086182 -0.01505554 6.00294434 -0.01100708 7.29296875 -0.00683594 C8.57276611 -0.00874939 9.85256348 -0.01066284 11.17114258 -0.01263428 C13.88139668 -0.01558475 16.59151902 -0.01129049 19.30175781 -0.00195312 C22.77896106 0.00944154 26.25585557 0.00288163 29.73304749 -0.00909805 C33.04471279 -0.01805519 36.35629466 -0.01178729 39.66796875 -0.00683594 C41.54609253 -0.01290863 41.54609253 -0.01290863 43.4621582 -0.019104 C44.61675537 -0.01279968 45.77135254 -0.00649536 46.9609375 0 C47.98082764 0.00159119 49.00071777 0.00318237 50.05151367 0.00482178 C52.48046875 0.25878906 52.48046875 0.25878906 54.48046875 2.25878906 C54.72770691 4.73243713 54.72770691 4.73243713 54.72338867 7.88598633 C54.72800362 9.65275475 54.72800362 9.65275475 54.73271179 11.45521545 C54.72552628 12.73230881 54.71834076 14.00940216 54.7109375 15.32519531 C54.71047928 16.62956039 54.71002106 17.93392548 54.70954895 19.27781677 C54.70798408 22.03935055 54.69969342 24.80075469 54.6862793 27.56225586 C54.66927274 31.1089886 54.66546542 34.65557902 54.66622448 38.20234776 C54.66588786 41.57664949 54.65705413 44.95090413 54.6484375 48.32519531 C54.64732468 49.6043129 54.64621185 50.88343048 54.64506531 52.2013092 C54.63868546 53.37600266 54.6323056 54.55069611 54.62573242 55.76098633 C54.62001472 57.32079979 54.62001472 57.32079979 54.61418152 58.91212463 C54.48046875 61.25878906 54.48046875 61.25878906 53.48046875 62.25878906 C51.61411087 62.35789467 49.74398681 62.38678168 47.875 62.38818359 C46.67705811 62.39133575 45.47911621 62.39448792 44.24487305 62.3977356 C42.94074463 62.39571136 41.63661621 62.39368713 40.29296875 62.39160156 C38.9515786 62.39227466 37.61018856 62.39324474 36.26879883 62.39450073 C33.45425254 62.39597742 30.63973793 62.3938241 27.82519531 62.38916016 C24.21006244 62.38346287 20.5950038 62.38674203 16.97987366 62.39273262 C14.20901933 62.39633903 11.43818273 62.39519928 8.66732788 62.39260483 C6.68357292 62.39160939 4.69981728 62.39465647 2.71606445 62.3977356 C1.51812256 62.39458344 0.32018066 62.39143127 -0.9140625 62.38818359 C-1.97471924 62.387388 -3.03537598 62.38659241 -4.12817383 62.38577271 C-6.51953125 62.25878906 -6.51953125 62.25878906 -7.51953125 61.25878906 C-7.62382 59.42851734 -7.65807499 57.59421451 -7.66479492 55.76098633 C-7.67117477 54.58629288 -7.67755463 53.41159943 -7.68412781 52.2013092 C-7.68524063 50.92219162 -7.68635345 49.64307404 -7.6875 48.32519531 C-7.6908284 47.02178696 -7.6941568 45.7183786 -7.69758606 44.37547302 C-7.70358325 41.61220472 -7.70542537 38.84896772 -7.70483398 36.08569336 C-7.70473234 32.54010433 -7.71838356 28.99471549 -7.73560619 25.44917393 C-7.74938138 22.07451107 -7.74881448 18.69988597 -7.75 15.32519531 C-7.75718552 14.04810196 -7.76437103 12.77100861 -7.77177429 11.45521545 C-7.76869766 10.27736984 -7.76562103 9.09952423 -7.76245117 7.88598633 C-7.76387619 6.84531509 -7.76530121 5.80464386 -7.76676941 4.73243713 C-7.26353811 -0.30245362 -4.3109508 0.00672575 0 0 Z " fill="#FB9D1E" transform="translate(557.51953125,429.7412109375)"/>
<path d="M0 0 C1.13457642 -0.00630432 2.26915283 -0.01260864 3.43811035 -0.019104 C5.28342346 -0.01303131 5.28342346 -0.01303131 7.16601562 -0.00683594 C9.0524176 -0.00970612 9.0524176 -0.00970612 10.97692871 -0.01263428 C13.64019438 -0.01399743 16.30309492 -0.011291 18.96630859 -0.00195312 C22.38297957 0.00944154 25.79933635 0.00288159 29.21599579 -0.00909805 C32.47018042 -0.01805547 35.7243269 -0.01178722 38.97851562 -0.00683594 C40.20872437 -0.0108844 41.43893311 -0.01493286 42.7064209 -0.019104 C44.40828552 -0.00964752 44.40828552 -0.00964752 46.14453125 0 C47.14665649 0.00159119 48.14878174 0.00318237 49.18127441 0.00482178 C51.57226562 0.25878906 51.57226562 0.25878906 53.57226562 2.25878906 C53.82623291 4.64978027 53.82623291 4.64978027 53.83105469 7.68652344 C53.83735901 8.82109985 53.84366333 9.95567627 53.85015869 11.12463379 C53.84611023 12.35484253 53.84206177 13.58505127 53.83789062 14.85253906 C53.8407608 16.73894104 53.8407608 16.73894104 53.84368896 18.66345215 C53.84505212 21.32671781 53.84234569 23.98961836 53.83300781 26.65283203 C53.82161314 30.069503 53.8281731 33.48585979 53.84015274 36.90251923 C53.84911016 40.15670386 53.8428419 43.41085034 53.83789062 46.66503906 C53.84193909 47.8952478 53.84598755 49.12545654 53.85015869 50.39294434 C53.84385437 51.52752075 53.83755005 52.66209717 53.83105469 53.83105469 C53.8294635 54.83317993 53.82787231 55.83530518 53.82623291 56.86779785 C53.57226562 59.25878906 53.57226562 59.25878906 51.57226562 61.25878906 C49.18127441 61.51275635 49.18127441 61.51275635 46.14453125 61.51757812 C45.00995483 61.52388245 43.87537842 61.53018677 42.7064209 61.53668213 C40.86110779 61.53060944 40.86110779 61.53060944 38.97851562 61.52441406 C37.72091431 61.52632751 36.46331299 61.52824097 35.16760254 61.5302124 C32.50433687 61.53157555 29.84143633 61.52886912 27.17822266 61.51953125 C23.76155168 61.50813658 20.3451949 61.51469654 16.92853546 61.52667618 C13.67435083 61.5356336 10.42020435 61.52936534 7.16601562 61.52441406 C5.93580688 61.52846252 4.70559814 61.53251099 3.43811035 61.53668213 C1.73624573 61.52722565 1.73624573 61.52722565 0 61.51757812 C-1.00212524 61.51598694 -2.00425049 61.51439575 -3.03674316 61.51275635 C-5.42773438 61.25878906 -5.42773438 61.25878906 -7.42773438 59.25878906 C-7.68170166 56.86779785 -7.68170166 56.86779785 -7.68652344 53.83105469 C-7.69282776 52.69647827 -7.69913208 51.56190186 -7.70562744 50.39294434 C-7.70157898 49.1627356 -7.69753052 47.93252686 -7.69335938 46.66503906 C-7.69527283 45.40743774 -7.69718628 44.14983643 -7.69915771 42.85412598 C-7.70052087 40.19086031 -7.69781444 37.52795976 -7.68847656 34.86474609 C-7.67708189 31.44807512 -7.68364185 28.03171834 -7.69562149 24.6150589 C-7.70457891 21.36087427 -7.69831065 18.10672779 -7.69335938 14.85253906 C-7.69740784 13.62233032 -7.7014563 12.39212158 -7.70562744 11.12463379 C-7.69932312 9.99005737 -7.6930188 8.85548096 -7.68652344 7.68652344 C-7.68493225 6.68439819 -7.68334106 5.68227295 -7.68170166 4.64978027 C-7.15776109 -0.28289167 -4.21846463 0.00669813 0 0 Z " fill="#00A37E" transform="translate(462.427734375,430.7412109375)"/>
<path d="M0 0 C0.83071518 0.00424484 1.66143036 0.00848969 2.51731873 0.01286316 C5.13559257 0.02947561 7.7530579 0.06709245 10.37109375 0.10546875 C12.16079607 0.12053822 13.95051062 0.13422263 15.74023438 0.14648438 C20.09665929 0.17932155 24.4524901 0.23097939 28.80859375 0.29296875 C28.86820843 2.33557598 28.91033392 4.3786974 28.9453125 6.421875 C28.97069092 7.55955322 28.99606934 8.69723145 29.0222168 9.86938477 C28.5325141 17.71750003 24.35882167 24.8718159 18.80859375 30.29296875 C8.66852394 38.07073658 -1.76523103 39.21103164 -14.19140625 38.29296875 C-20.01510791 37.32089223 -23.44087973 34.5116066 -27.0625 30.01171875 C-29.99258784 25.55068535 -29.73756048 20.41901627 -29.19140625 15.29296875 C-27.35234399 9.52097213 -23.35350909 6.15789131 -18.19140625 3.29296875 C-12.09108368 0.67597479 -6.59127327 -0.13005169 0 0 Z " fill="#010D18" transform="translate(1744.19140625,413.70703125)"/>
<path d="M0 0 C5.61344507 4.98380009 9.01721073 10.75850876 11 18 C11 19.32 11 20.64 11 22 C-11.44 22 -33.88 22 -57 22 C-57 14.37138717 -53.08067982 8.44203192 -48.03515625 2.8046875 C-34.54803211 -9.53402805 -14.77416373 -10.90247774 0 0 Z " fill="#010F19" transform="translate(1485,370)"/>
<path d="M0 0 C26.4 0 52.8 0 80 0 C80 0.66 80 1.32 80 2 C54.26 2 28.52 2 2 2 C2 63.71 2 125.42 2 189 C5.96 189 9.92 189 14 189 C14 189.33 14 189.66 14 190 C9.38 190.33 4.76 190.66 0 191 C0 127.97 0 64.94 0 0 Z " fill="#01906E" transform="translate(1243,283)"/>
<path d="M0 0 C0 14.85 0 29.7 0 45 C-29.7 45 -59.4 45 -90 45 C-90 44.34 -90 43.68 -90 43 C-86.01187704 41.66505644 -81.9825146 41.9086364 -77.83496094 41.97827148 C-76.60513489 41.9926828 -76.60513489 41.9926828 -75.35046387 42.00738525 C-72.64501209 42.04032188 -69.93972448 42.08067452 -67.234375 42.12109375 C-65.35679704 42.14540008 -63.47921303 42.16924338 -61.60162354 42.19264221 C-56.66305649 42.25543206 -51.72459668 42.32451319 -46.78613281 42.39489746 C-40.85904181 42.47806547 -34.93184711 42.55343226 -29.00466919 42.63010406 C-20.0030191 42.74742098 -11.00155803 42.87465697 -2 43 C-2 29.47 -2 15.94 -2 2 C-23.45 2 -44.9 2 -67 2 C-67 1.67 -67 1.34 -67 1 C-58.55959662 0.86943556 -50.11919071 0.73903601 -41.67878151 0.60884857 C-37.75981141 0.54839597 -33.84084221 0.48788598 -29.921875 0.42724609 C-26.14178037 0.36875714 -22.36168347 0.31041728 -18.58158493 0.25218201 C-17.13745415 0.22990764 -15.6933242 0.20757901 -14.2491951 0.18519592 C-12.23074815 0.15392043 -10.21229798 0.12285356 -8.19384766 0.09179688 C-7.04357086 0.07403198 -5.89329407 0.05626709 -4.7081604 0.03796387 C-3.13887677 0.01596514 -1.56943782 0 0 0 Z " fill="#A9C1D4" transform="translate(420,480)"/>
<path d="M0 0 C4.875 4.75 4.875 4.75 6 7 C4.58603098 7.50757862 3.16868271 8.00574925 1.75 8.5 C0.96109375 8.7784375 0.1721875 9.056875 -0.640625 9.34375 C-3 10 -3 10 -7 10 C-6.42424336 6.64749299 -5.40693737 5.06181371 -2.9375 2.75 C-2.38964844 2.22921875 -1.84179688 1.7084375 -1.27734375 1.171875 C-0.64505859 0.59179688 -0.64505859 0.59179688 0 0 Z " fill="#C1D6EC" transform="translate(682,427)"/>
<path d="M0 0 C0.66 1.32 1.32 2.64 2 4 C-1.26720791 8.38894929 -4.54898478 12.75259665 -8 17 C-8.99 16.67 -9.98 16.34 -11 16 C-10.61328125 15.56429688 -10.2265625 15.12859375 -9.828125 14.6796875 C-3.90204332 7.96694029 -3.90204332 7.96694029 0 0 Z " fill="#011820" transform="translate(1931,450)"/>
<path d="M0 0 C6.6 0.66 13.2 1.32 20 2 C20 2.66 20 3.32 20 4 C17.79229195 4.08165496 15.58369575 4.13948488 13.375 4.1875 C11.53035156 4.23970703 11.53035156 4.23970703 9.6484375 4.29296875 C5.73592336 3.9787947 3.35929782 2.96906533 0 1 C0 0.67 0 0.34 0 0 Z " fill="#1B2129" transform="translate(979,445)"/>
<path d="M0 0 C0 0.99 0 1.98 0 3 C-5.36190101 5.61407872 -10.03435204 7.49228528 -16 8 C-15.34 7.67 -14.68 7.34 -14 7 C-14 6.34 -14 5.68 -14 5 C-13.30132813 4.72285156 -12.60265625 4.44570313 -11.8828125 4.16015625 C-10.97273437 3.79792969 -10.06265625 3.43570312 -9.125 3.0625 C-8.22007812 2.70285156 -7.31515625 2.34320313 -6.3828125 1.97265625 C-1.5502008 0 -1.5502008 0 0 0 Z " fill="#0E1722" transform="translate(885,470)"/>
<path d="M0 0 C-0.25390625 1.8984375 -0.25390625 1.8984375 -1 4 C-2.77734375 4.9765625 -2.77734375 4.9765625 -4.9375 5.625 C-7.75252096 6.49351826 -8.86379137 6.86379137 -11 9 C-11.99 8.67 -12.98 8.34 -14 8 C-12.37615858 6.85252535 -10.75088944 5.7070709 -9.125 4.5625 C-8.22007813 3.92441406 -7.31515625 3.28632813 -6.3828125 2.62890625 C-2.53717026 0 -2.53717026 0 0 0 Z " fill="#B7D2EC" transform="translate(1138,340)"/>
<path d="M0 0 C0.73046875 1.73046875 0.73046875 1.73046875 1 4 C-0.51171875 6.17578125 -0.51171875 6.17578125 -2.6875 8.3125 C-3.39261719 9.03050781 -4.09773438 9.74851562 -4.82421875 10.48828125 C-7 12 -7 12 -9.26953125 11.73046875 C-10.12611328 11.36888672 -10.12611328 11.36888672 -11 11 C-10.37351562 10.45730469 -9.74703125 9.91460937 -9.1015625 9.35546875 C-8.28429688 8.64003906 -7.46703125 7.92460937 -6.625 7.1875 C-5.40683594 6.12595703 -5.40683594 6.12595703 -4.1640625 5.04296875 C-1.83816812 3.00018747 -1.83816812 3.00018747 0 0 Z " fill="#0F1928" transform="translate(1048,451)"/>
<path d="M0 0 C0.99 0.66 1.98 1.32 3 2 C1.42274653 2.70133599 -0.16211333 3.385583 -1.75 4.0625 C-2.63171875 4.44535156 -3.5134375 4.82820313 -4.421875 5.22265625 C-7.15256309 6.04600008 -8.36901347 5.9773992 -11 5 C-8.6041904 3.4027936 -6.63362635 2.30744088 -4 1.25 C-3.319375 0.96640625 -2.63875 0.6828125 -1.9375 0.390625 C-1.298125 0.26171875 -0.65875 0.1328125 0 0 Z " fill="#008F6E" transform="translate(1494,469)"/>
<path d="M0 0 C3.63559661 3.43361902 6.36113346 6.7973607 9 11 C8.34 11.66 7.68 12.32 7 13 C6.67 11.68 6.34 10.36 6 9 C5.34 9 4.68 9 4 9 C0 3.70588235 0 3.70588235 0 0 Z " fill="#0C131E" transform="translate(234,391)"/>
<path d="M0 0 C0.66 0.33 1.32 0.66 2 1 C-1.3 4.3 -4.6 7.6 -8 11 C-8.66 10.67 -9.32 10.34 -10 10 C-3.84965831 2.51708428 -3.84965831 2.51708428 0 0 Z " fill="#001D21" transform="translate(1443,368)"/>
<path d="M0 0 C1.45945288 0.08708669 2.91765868 0.19526907 4.375 0.3125 C5.59316406 0.39951172 5.59316406 0.39951172 6.8359375 0.48828125 C9 1 9 1 11 4 C9.741875 4.020625 8.48375 4.04125 7.1875 4.0625 C6.47980469 4.07410156 5.77210938 4.08570313 5.04296875 4.09765625 C3 4 3 4 0 3 C0 2.01 0 1.02 0 0 Z " fill="#151D28" transform="translate(860,334)"/>
<path d="M0 0 C0.99 0.33 1.98 0.66 3 1 C-0.75 6.75 -0.75 6.75 -3 9 C-3.99 8.67 -4.98 8.34 -6 8 C-4.02 5.36 -2.04 2.72 0 0 Z " fill="#B6D3EB" transform="translate(305,244)"/>
<path d="M0 0 C2.97 0.495 2.97 0.495 6 1 C3.08175756 2.66674321 1.02405621 3.2432008 -2.328125 3.1953125 C-3.12734375 3.18886719 -3.9265625 3.18242187 -4.75 3.17578125 C-5.575 3.15902344 -6.4 3.14226562 -7.25 3.125 C-8.09046875 3.11597656 -8.9309375 3.10695313 -9.796875 3.09765625 C-11.86470604 3.07415817 -13.93238995 3.03828908 -16 3 C-16 2.67 -16 2.34 -16 2 C-10.72 2 -5.44 2 0 2 C0 1.34 0 0.68 0 0 Z " fill="#AAC2D5" transform="translate(724,474)"/>
<path d="M0 0 C0.33 1.32 0.66 2.64 1 4 C-3.296875 8.00390625 -3.296875 8.00390625 -5 9 C-7.203125 8.65234375 -7.203125 8.65234375 -9 8 C-8.51789062 7.67386719 -8.03578125 7.34773438 -7.5390625 7.01171875 C-6.90742187 6.57472656 -6.27578125 6.13773437 -5.625 5.6875 C-4.99851562 5.25824219 -4.37203125 4.82898438 -3.7265625 4.38671875 C-1.73621155 2.93079661 -1.73621155 2.93079661 0 0 Z " fill="#131B2A" transform="translate(898,459)"/>
<path d="M0 0 C0.66 1.65 1.32 3.3 2 5 C-0.97 5 -3.94 5 -7 5 C-2.25 0 -2.25 0 0 0 Z " fill="#CCDFF0" transform="translate(818,433)"/>
<path d="M0 0 C0.33 0.66 0.66 1.32 1 2 C1.66 2.33 2.32 2.66 3 3 C1.35 4.65 -0.3 6.3 -2 8 C-2.99 7.67 -3.98 7.34 -5 7 C-3.35 4.69 -1.7 2.38 0 0 Z " fill="#161E2B" transform="translate(280,347)"/>
<path d="M0 0 C0.33 0.99 0.66 1.98 1 3 C-2.08306962 8.70938819 -2.08306962 8.70938819 -5.14453125 9.6796875 C-5.75683594 9.78539062 -6.36914062 9.89109375 -7 10 C-6.02223933 8.51990357 -5.0427506 7.04094856 -4.0625 5.5625 C-3.51722656 4.73878906 -2.97195312 3.91507812 -2.41015625 3.06640625 C-1 1 -1 1 0 0 Z " fill="#B4CDE5" transform="translate(244,323)"/>
<path d="M0 0 C-2.57642867 2.11635213 -4.62505968 3.67339287 -8 4 C-8.99 3.34 -9.98 2.68 -11 2 C-9.73392393 1.46770674 -8.46189588 0.94955456 -7.1875 0.4375 C-6.47980469 0.14746094 -5.77210937 -0.14257812 -5.04296875 -0.44140625 C-3 -1 -3 -1 0 0 Z " fill="#012128" transform="translate(1915,471)"/>
<path d="M0 0 C0.66 1.32 1.32 2.64 2 4 C0.35 5.32 -1.3 6.64 -3 8 C-3.66 7.34 -4.32 6.68 -5 6 C-3.35 4.02 -1.7 2.04 0 0 Z " fill="#18202F" transform="translate(336,274)"/>
<path d="M0 0 C0.33 0.66 0.66 1.32 1 2 C0.00390625 4.1640625 0.00390625 4.1640625 -1.4375 6.625 C-1.91058594 7.44226563 -2.38367188 8.25953125 -2.87109375 9.1015625 C-3.24363281 9.72804688 -3.61617187 10.35453125 -4 11 C-4.66 11 -5.32 11 -6 11 C-4.74194623 6.49197399 -3.09592835 3.5087188 0 0 Z " fill="#B0C7E0" transform="translate(936,363)"/>
<path d="M0 0 C0 0.99 0 1.98 0 3 C-2.8125 3.6875 -2.8125 3.6875 -6 4 C-7.875 2.5625 -7.875 2.5625 -9 1 C-5.846632 0.29925156 -3.27275026 0 0 0 Z " fill="#182535" transform="translate(1012,475)"/>
<path d="M0 0 C-2.85306797 2.32472205 -5.54074837 3.7508258 -9 5 C-8.625 3.0625 -8.625 3.0625 -8 1 C-5.29120665 -0.35439668 -2.99066732 -0.06501451 0 0 Z " fill="#AECBE2" transform="translate(749,467)"/>
<path d="M0 0 C2.9375 1.1875 2.9375 1.1875 3.9375 3.1875 C2.25 3.9375 2.25 3.9375 -0.0625 4.1875 C-2.8125 2.25 -2.8125 2.25 -5.0625 0.1875 C-3.0625 -0.8125 -3.0625 -0.8125 0 0 Z " fill="#101A28" transform="translate(834.0625,442.8125)"/>
<path d="M0 0 C0.33 0 0.66 0 1 0 C2.20568053 4.67201205 2.09382426 9.21496292 2 14 C1.67 14 1.34 14 1 14 C1 12.02 1 10.04 1 8 C0.34 8 -0.32 8 -1 8 C-0.67 5.36 -0.34 2.72 0 0 Z " fill="#007259" transform="translate(1524,386)"/>
<path d="M0 0 C2.29633824 3.44450737 2.54016485 5.93812283 3 10 C2.34 10 1.68 10 1 10 C0.63883954 8.5225254 0.28624952 7.04295325 -0.0625 5.5625 C-0.25972656 4.73878906 -0.45695312 3.91507812 -0.66015625 3.06640625 C-0.82837891 2.04353516 -0.82837891 2.04353516 -1 1 C-0.67 0.67 -0.34 0.34 0 0 Z " fill="#B8D0E1" transform="translate(1202,364)"/>
<path d="M0 0 C1.21816406 0.03480469 1.21816406 0.03480469 2.4609375 0.0703125 C3.68683594 0.09738281 3.68683594 0.09738281 4.9375 0.125 C5.87722656 0.15980469 5.87722656 0.15980469 6.8359375 0.1953125 C6.8359375 0.5253125 6.8359375 0.8553125 6.8359375 1.1953125 C5.9284375 1.2984375 5.0209375 1.4015625 4.0859375 1.5078125 C0.81632175 2.19946199 -0.70123987 3.01666171 -3.1640625 5.1953125 C-3.4940625 4.2053125 -3.8240625 3.2153125 -4.1640625 2.1953125 C-2.1640625 0.1953125 -2.1640625 0.1953125 0 0 Z " fill="#BCD7F0" transform="translate(334.1640625,208.8046875)"/>
<path d="M0 0 C-2.39763185 2.39763185 -3.33273498 2.34280586 -6.625 2.625 C-7.44226562 2.69976562 -8.25953125 2.77453125 -9.1015625 2.8515625 C-9.72804688 2.90054687 -10.35453125 2.94953125 -11 3 C-4.23255814 -1.51162791 -4.23255814 -1.51162791 0 0 Z " fill="#001D22" transform="translate(1646,471)"/>
<path d="M0 0 C0.66 0.99 1.32 1.98 2 3 C0.35 4.65 -1.3 6.3 -3 8 C-3.66 7.67 -4.32 7.34 -5 7 C-3.35 4.69 -1.7 2.38 0 0 Z " fill="#AFC8DD" transform="translate(275,283)"/>
<path d="M0 0 C0.33 0.66 0.66 1.32 1 2 C0.22265625 3.7265625 0.22265625 3.7265625 -0.9375 5.625 C-1.618125 6.73875 -2.29875 7.8525 -3 9 C-3.99 8.67 -4.98 8.34 -6 8 C-4.02 5.36 -2.04 2.72 0 0 Z " fill="#121B2A" transform="translate(343,265)"/>
<path d="M0 0 C0.99 0 1.98 0 3 0 C4.75 1.8125 4.75 1.8125 6 4 C5.67 4.99 5.34 5.98 5 7 C2.47411298 4.63707344 1.11179163 3.33537489 0 0 Z " fill="#B9D3EC" transform="translate(307,491)"/>
<path d="M0 0 C1.65 1.65 3.3 3.3 5 5 C4.67 5.99 4.34 6.98 4 8 C1.47411298 5.63707344 0.11179163 4.33537489 -1 1 C-0.67 0.67 -0.34 0.34 0 0 Z " fill="#0F1622" transform="translate(305,410)"/>
<path d="M0 0 C-0.66 1.32 -1.32 2.64 -2 4 C-2.99 3.67 -3.98 3.34 -5 3 C-2.25 0 -2.25 0 0 0 Z M-7 4 C-6.34 4.33 -5.68 4.66 -5 5 C-6.32 5.99 -7.64 6.98 -9 8 C-8.34 6.68 -7.68 5.36 -7 4 Z " fill="#029C7A" transform="translate(1706,349)"/>
<path d="M0 0 C3.7952131 1.49097658 5.61042731 3.75700849 8 7 C4.56404834 5.47291037 1.88087546 3.40072955 -1 1 C-0.67 0.67 -0.34 0.34 0 0 Z " fill="#C8DDEE" transform="translate(1187,346)"/>
<path d="M0 0 C2.64 0 5.28 0 8 0 C5.23776722 2.76223278 2.79293383 2.57856291 -1 3 C-0.67 2.01 -0.34 1.02 0 0 Z " fill="#96AEC3" transform="translate(869,473)"/>
<path d="M0 0 C3.43595166 1.52708963 6.11912454 3.59927045 9 6 C8.01 6.33 7.02 6.66 6 7 C2.8125 4.6875 2.8125 4.6875 0 2 C0 1.34 0 0.68 0 0 Z " fill="#C0D5E6" transform="translate(668,458)"/>
<path d="M0 0 C-0.33 0.66 -0.66 1.32 -1 2 C-2.98 2 -4.96 2 -7 2 C-7.33 1.34 -7.66 0.68 -8 0 C-5.13822943 -1.43088528 -3.06624227 -0.59991697 0 0 Z " fill="#19212B" transform="translate(851,449)"/>
<path d="M0 0 C0.66 0.66 1.32 1.32 2 2 C1.96712417 4.72869407 1.43602229 7.2966618 1 10 C-0.85064319 6.87703962 -1.29356154 4.62059232 -1 1 C-0.67 0.67 -0.34 0.34 0 0 Z " fill="#BED5E9" transform="translate(1031,387)"/>
<path d="M0 0 C2.5 2.3125 2.5 2.3125 5 5 C5 5.99 5 6.98 5 8 C2.5 5.6875 2.5 5.6875 0 3 C0 2.01 0 1.02 0 0 Z " fill="#0E1622" transform="translate(224,377)"/>
<path d="M0 0 C0.33 0 0.66 0 1 0 C1.33 3.3 1.66 6.6 2 10 C1.01 10 0.02 10 -1 10 C-0.67 6.7 -0.34 3.4 0 0 Z " fill="#CEE7FB" transform="translate(831,373)"/>
<path d="M0 0 C0.33 0 0.66 0 1 0 C1 2.64 1 5.28 1 8 C0.01 8 -0.98 8 -2 8 C-1.47731534 5.23723823 -0.89130413 2.6739124 0 0 Z " fill="#0E131C" transform="translate(802,366)"/>
<path d="M0 0 C0.99 0.33 1.98 0.66 3 1 C1.37660195 2.70884005 -0.29319053 4.37446717 -2 6 C-2.66 6 -3.32 6 -4 6 C-2.84826645 3.53199953 -1.95216435 1.95216435 0 0 Z " fill="#02AE88" transform="translate(1843,348)"/>
</svg>
