<?xml version="1.0" encoding="UTF-8"?>
<svg version="1.1" xmlns="http://www.w3.org/2000/svg" width="2172" height="724">
<path d="M0 0 C716.76 0 1433.52 0 2172 0 C2172 238.92 2172 477.84 2172 724 C1455.24 724 738.48 724 0 724 C0 485.08 0 246.16 0 0 Z " fill="#FDFDFD" transform="translate(0,0)"/>
<path d="M0 0 C1.82381535 0.00282314 3.64764205 0.00123271 5.47145081 -0.00442505 C10.40777297 -0.0072881 15.3416529 0.05139492 20.2774086 0.12131453 C25.44091573 0.18393552 30.60448228 0.18971017 35.76831055 0.2015686 C45.53984809 0.23261882 55.31026347 0.31463648 65.08130741 0.4150635 C76.20808725 0.52693606 87.33492141 0.58184443 98.46212387 0.63201785 C121.34530591 0.73647362 144.22695011 0.91981972 167.109375 1.13525391 C167.109375 15.65525391 167.109375 30.17525391 167.109375 45.13525391 C162.21464355 45.07128418 157.31991211 45.00731445 152.27685547 44.94140625 C136.08007931 44.74293695 119.88379529 44.64313758 103.68591118 44.59378624 C93.86744867 44.56147523 84.05137548 44.49579475 74.23388672 44.35009766 C65.67149886 44.22311323 57.11137971 44.16022437 48.54801857 44.17262805 C44.01717006 44.17699588 39.49150193 44.1504193 34.96172714 44.04691696 C15.19449081 42.68274463 15.19449081 42.68274463 -2.12469482 50.04498291 C-5.31250877 53.70555885 -7.65731618 57.59339794 -9.76977158 61.95018387 C-11.44771454 65.22128321 -13.62797353 67.85590211 -15.953125 70.69775391 C-18.64436221 74.20077414 -21.32902632 77.70864321 -24.0078125 81.22119141 C-29.60512934 88.55843908 -35.22803707 95.87104698 -40.94384766 103.11645508 C-44.2999757 107.37343854 -47.61376457 111.66141256 -50.91308594 115.96264648 C-60.4798035 128.42514447 -70.16834355 140.79390888 -79.890625 153.13525391 C-78.1050477 157.10320346 -75.61549796 160.57781624 -73.140625 164.13525391 C-72.66036865 164.82949463 -72.1801123 165.52373535 -71.68530273 166.23901367 C-70.09085539 168.54041139 -68.49153012 170.83834408 -66.890625 173.13525391 C-66.33197754 173.93688965 -65.77333008 174.73852539 -65.19775391 175.56445312 C-61.10676788 181.4293963 -57.00133887 187.2841263 -52.890625 193.13525391 C-52.36823242 193.87952637 -51.84583984 194.62379883 -51.30761719 195.390625 C-45.76530334 203.28352147 -40.17687764 211.1396875 -34.515625 218.94775391 C-28.10664333 227.78895566 -21.84972279 236.73276307 -15.6015625 245.68798828 C-12.85533801 249.61609248 -10.0929984 253.53276245 -7.328125 257.44775391 C-6.85173584 258.12265869 -6.37534668 258.79756348 -5.88452148 259.49291992 C-4.5549019 261.37491214 -3.2247277 263.25643574 -1.890625 265.13525391 C-1.64767197 265.71504501 -1.40471893 266.29483612 -1.15440369 266.89219666 C0.03403439 269.24828419 0.99104223 270.53269083 3.109375 272.13525391 C8.20840692 273.212745 13.28889236 273.09070617 18.47265625 273.03759766 C19.99010862 273.04698583 21.50754484 273.05944555 23.02494812 273.07484436 C27.00863885 273.10704829 30.99117754 273.09763693 34.97491455 273.07946777 C39.75999509 273.06633867 44.54490491 273.10505403 49.32987213 273.13504791 C56.5903481 273.17477007 63.84792462 273.14876179 71.109375 273.13525391 C71.109375 287.98525391 71.109375 302.83525391 71.109375 318.13525391 C48.4701804 318.61655962 48.4701804 318.61655962 38.796875 318.72119141 C32.20324397 318.79285046 25.61161806 318.87747565 19.01953125 319.04052734 C13.70251085 319.17121329 8.38764032 319.24272156 3.06913757 319.27378082 C1.0434941 319.29590332 -0.9820354 319.33910995 -3.00675964 319.40401459 C-18.89399046 319.89289859 -18.89399046 319.89289859 -23.86943054 315.51300049 C-25.92443133 312.45723959 -27.43722847 309.51006709 -28.890625 306.13525391 C-29.71111191 304.88399843 -30.56595578 303.65364497 -31.47265625 302.46337891 C-35.72798866 296.59087113 -39.91869802 290.68189285 -44.015625 284.69775391 C-54.9718781 268.70776067 -66.046901 252.81287099 -77.44287109 237.1328125 C-79.66935452 234.06079102 -81.87532945 230.97428643 -84.078125 227.88525391 C-84.47950684 227.32249756 -84.88088867 226.75974121 -85.29443359 226.17993164 C-86.09274491 225.06031705 -86.89092295 223.94060742 -87.68896484 222.82080078 C-89.75407337 219.92411056 -91.8225165 217.02980265 -93.890625 214.13525391 C-96.35703247 210.68324128 -98.82292124 207.23086934 -101.28515625 203.77587891 C-105.88681051 197.32104016 -110.50637379 190.87922936 -115.140625 184.44775391 C-115.67550537 183.70211182 -116.21038574 182.95646973 -116.76147461 182.18823242 C-119.73638426 178.05658438 -122.76371682 173.97610807 -125.8671875 169.93994141 C-126.5178418 169.08489014 -127.16849609 168.22983887 -127.83886719 167.34887695 C-129.10042755 165.69487732 -130.37413038 164.05005239 -131.66113281 162.41577148 C-132.22928711 161.66706787 -132.79744141 160.91836426 -133.3828125 160.14697266 C-134.14634033 159.16410278 -134.14634033 159.16410278 -134.92529297 158.16137695 C-136.24208476 155.39757952 -135.84168274 154.00675466 -134.890625 151.13525391 C-133.71411133 149.20092773 -133.71411133 149.20092773 -132.22265625 147.34228516 C-131.66618408 146.6387793 -131.10971191 145.93527344 -130.53637695 145.21044922 C-129.93140381 144.46375977 -129.32643066 143.71707031 -128.703125 142.94775391 C-127.4216177 141.33467704 -126.14037518 139.72138978 -124.859375 138.10791016 C-124.20066406 137.28436035 -123.54195312 136.46081055 -122.86328125 135.61230469 C-119.77300325 131.73186403 -116.74033602 127.80726179 -113.703125 123.88525391 C-109.01529289 117.85263746 -104.30727009 111.83628486 -99.58349609 105.83178711 C-94.82241027 99.77972479 -90.09340693 93.70464694 -85.40551758 87.59570312 C-81.06324949 81.93843433 -76.68435217 76.31226143 -72.27172852 70.7097168 C-66.71272803 63.64750246 -61.20278787 56.54720849 -55.68896484 49.44970703 C-52.17940271 44.93292057 -48.66693018 40.41839683 -45.15454102 35.90380859 C-42.16081184 32.05550811 -39.16880942 28.20588443 -36.1796875 24.35400391 C-35.56609375 23.56380859 -34.9525 22.77361328 -34.3203125 21.95947266 C-33.16607405 20.47295345 -32.01237559 18.9860147 -30.859375 17.49853516 C-29.80736529 16.14413618 -28.74103722 14.80069822 -27.65853882 13.470541 C-25.83421462 11.1688592 -25.83421462 11.1688592 -24.44229126 8.56957436 C-18.36466615 -1.16271011 -10.30762448 -0.22325074 0 0 Z " fill="#04275A" transform="translate(349.890625,205.86474609375)"/>
<path d="M0 0 C104.2579191 0 104.2579191 0 123.04296875 17.87890625 C136.10764795 32.03882802 140.90323178 49.12772299 140.33984375 68.0234375 C139.65734315 80.72620674 135.23920183 90.7420217 128 101 C127.59007812 101.61359375 127.18015625 102.2271875 126.7578125 102.859375 C121.11539231 110.51988709 111.7471405 115.71712258 103 119 C104.45437218 122.97577118 106.34864128 126.39543943 108.5625 130 C113.59011035 138.26010324 118.47376527 146.60287086 123.35375977 154.95059204 C127.20948715 161.54576391 131.07202488 168.1358041 134.98828125 174.6953125 C135.59446289 175.71230225 136.20064453 176.72929199 136.82519531 177.77709961 C137.96021809 179.67853392 139.09874229 181.57788369 140.24121094 183.47485352 C140.74040039 184.31201904 141.23958984 185.14918457 141.75390625 186.01171875 C142.40854858 187.10166138 142.40854858 187.10166138 143.07641602 188.21362305 C144 190 144 190 144 192 C114.05065719 194.97207219 114.05065719 194.97207219 106.48828125 190.52197266 C102.63696539 186.36778014 100.94102473 181.18653903 99.12158203 175.90478516 C97.09356436 170.65242246 94.04306531 165.98377511 91.125 161.1875 C89.94437005 159.17004007 88.76729755 157.15049419 87.59375 155.12890625 C85.15506127 150.9581335 82.69498413 146.80093124 80.21875 142.65234375 C79.61530762 141.63954346 79.01186523 140.62674316 78.39013672 139.58325195 C77.23414981 137.64589464 76.0744549 135.71074389 74.91064453 133.77807617 C74.39614746 132.91545166 73.88165039 132.05282715 73.3515625 131.1640625 C72.89604004 130.40561035 72.44051758 129.6471582 71.97119141 128.86572266 C71 127 71 127 71 125 C57.8 125 44.6 125 31 125 C31 147.11 31 169.22 31 192 C20.77 192 10.54 192 0 192 C0 128.64 0 65.28 0 0 Z " fill="#04AA80" transform="translate(1245,282)"/>
<path d="M0 0 C12.22291674 10.81326649 19.8270738 23.55921961 23.67578125 39.3671875 C23.8665625 40.12128906 24.05734375 40.87539063 24.25390625 41.65234375 C26.24869737 54.48919404 24.94432242 67.16733055 20.67578125 79.3671875 C20.16724609 80.91792969 20.16724609 80.91792969 19.6484375 82.5 C13.30324316 99.79686429 -0.17197621 111.97544001 -16.4921875 119.640625 C-17.76802839 120.2194698 -19.04534728 120.79506945 -20.32421875 121.3671875 C-20.94119629 121.64981445 -21.55817383 121.93244141 -22.19384766 122.22363281 C-27.24755849 124.48338889 -31.68467388 125.49240107 -37.203125 125.5 C-38.57609741 125.50350464 -38.57609741 125.50350464 -39.97680664 125.50708008 C-44.75983012 125.48260114 -49.54172252 125.44383007 -54.32421875 125.3671875 C-55.53078125 125.35042969 -56.73734375 125.33367187 -57.98046875 125.31640625 C-74.88464444 124.52118293 -89.32562112 114.68469262 -100.56640625 102.6171875 C-105.14544079 97.4055853 -108.46463129 91.64584692 -111.32421875 85.3671875 C-111.77716309 84.38999756 -111.77716309 84.38999756 -112.23925781 83.39306641 C-119.60845172 66.80641799 -120.27264062 46.9820463 -113.93359375 29.94140625 C-104.95540661 10.00198577 -91.52075865 -3.89102657 -71.32421875 -12.6328125 C-47.1948806 -21.5951381 -19.82627218 -15.93613758 0 0 Z " fill="#05285A" transform="translate(1040.32421875,350.6328125)"/>
<path d="M0 0 C0.93328125 0.45761719 1.8665625 0.91523438 2.828125 1.38671875 C15.71318104 8.42720596 22.8024906 19.23463829 27 33 C28.24928606 37.78130194 28.13357174 42.47517167 28.11352539 47.38012695 C28.11367142 48.31719986 28.11381744 49.25427277 28.1139679 50.21974182 C28.11327264 53.30927872 28.10549832 56.39875492 28.09765625 59.48828125 C28.0957907 61.63347847 28.09436744 63.77867611 28.09336853 65.9238739 C28.08955417 71.56435324 28.07973309 77.20480674 28.06866455 82.84527588 C28.0584272 88.60322724 28.05386593 94.36118278 28.04882812 100.11914062 C28.03810987 111.41277358 28.0205218 122.7063806 28 134 C18.1 134 8.2 134 -2 134 C-2.33 128.72 -2.66 123.44 -3 118 C-4.36125 119.505625 -5.7225 121.01125 -7.125 122.5625 C-17.58419324 133.02169324 -30.18624285 137.09723762 -44.75 137.375 C-57.81203303 137.3548674 -69.60499129 133.62592781 -79.44140625 124.8125 C-89.25700027 114.72200466 -91.76397788 104.84164935 -91.66699219 91.09277344 C-91.35287643 83.14154771 -89.69966185 77.5479701 -85 71 C-84.61714844 70.40574219 -84.23429687 69.81148438 -83.83984375 69.19921875 C-76.38774345 58.86243447 -62.0770411 53.33749183 -50 51 C-40.36669139 49.52569142 -30.58929085 49.88844727 -20.875 49.9375 C-19.13802212 49.94252485 -17.40104284 49.94708602 -15.6640625 49.95117188 C-11.44267312 49.96209986 -7.22135236 49.97931022 -3 50 C-3.10318622 48.11254413 -3.22220126 46.22595035 -3.34765625 44.33984375 C-3.41218994 43.28917725 -3.47672363 42.23851074 -3.54321289 41.15600586 C-4.30339185 35.90382341 -6.44110282 31.90192342 -10 28 C-18.87987448 21.8436653 -29.16013376 20.65537178 -39.6875 22.4609375 C-49.63466512 25.10315324 -56.45026931 30.42512199 -62 39 C-65.0191166 37.58590784 -67.63531237 35.92284385 -70.328125 33.9609375 C-71.12734375 33.38085938 -71.9265625 32.80078125 -72.75 32.203125 C-73.575 31.59984375 -74.4 30.9965625 -75.25 30.375 C-76.09046875 29.76398438 -76.9309375 29.15296875 -77.796875 28.5234375 C-79.86651376 27.01824567 -81.93412994 25.51035798 -84 24 C-82.138557 15.50891318 -74.80871348 9.18050586 -67.77734375 4.59765625 C-47.96300967 -6.80046279 -21.09564613 -10.57572736 0 0 Z " fill="#04AA81" transform="translate(1777,340)"/>
<path d="M0 0 C14.73430433 11.13304279 22.58398885 26.33595539 27 44 C27 52.25 27 60.5 27 69 C-6 69 -39 69 -73 69 C-68.09942633 84.68183576 -64.6284017 93.586397 -50.7265625 101.25390625 C-41.33595423 105.61491689 -31.28712123 105.02883571 -21.55859375 101.96484375 C-13.72437471 99.01056573 -8.98369367 95.42277236 -3.921875 88.6953125 C-2 87 -2 87 0.296875 86.9375 C3.97416104 88.38290723 6.85931624 90.50606546 10 92.875 C11.20704607 93.76996792 12.41535678 94.66323304 13.625 95.5546875 C14.19605469 95.97588867 14.76710938 96.39708984 15.35546875 96.83105469 C17.49597285 98.35254127 19.72134915 99.69668077 22 101 C17.49748746 110.76664411 9.84396615 117.24673911 1 123 C0.40574219 123.40992188 -0.18851563 123.81984375 -0.80078125 124.2421875 C-13.49975073 132.37204886 -27.55785592 131.50703196 -42 131 C-43.21816406 130.979375 -44.43632813 130.95875 -45.69140625 130.9375 C-62.07390418 130.23944416 -76.26578903 120.98057285 -87.19921875 109.3125 C-101.84190356 92.69725127 -105.26875221 71.13965875 -104.23388672 49.70947266 C-102.81277055 33.24647966 -94.13747746 17.0374603 -82 6 C-58.02353892 -13.01056126 -26.19061983 -18.19685703 0 0 Z " fill="#04AA80" transform="translate(1501,345)"/>
<path d="M0 0 C9.22495797 7.89229952 15.07781113 18.27183362 16.6875 30.3125 C16.82422663 33.53881453 16.81399852 36.76096222 16.80102539 39.98974609 C16.80117142 40.94647217 16.80131744 41.90319824 16.8014679 42.88891602 C16.80077357 46.03794658 16.79300369 49.18691732 16.78515625 52.3359375 C16.78329036 54.52454598 16.78186727 56.71315487 16.78086853 58.90176392 C16.77705679 64.6523759 16.76723798 70.40296248 16.75616455 76.15356445 C16.74592154 82.02554989 16.74136472 87.89753945 16.73632812 93.76953125 C16.7256145 105.2838671 16.70802858 116.79817746 16.6875 128.3125 C6.7875 128.3125 -3.1125 128.3125 -13.3125 128.3125 C-13.3218457 125.72937988 -13.33119141 123.14625977 -13.34082031 120.48486328 C-13.37467952 111.92324793 -13.43027807 103.36187134 -13.49640274 94.80044746 C-13.53580957 89.61272087 -13.56803135 84.42516229 -13.58349609 79.23730469 C-13.59870744 74.22501595 -13.6332323 69.21318934 -13.68080902 64.20110703 C-13.69557673 62.29472764 -13.70353835 60.38828225 -13.70438385 58.48184586 C-13.67540469 42.2913803 -13.67540469 42.2913803 -20.625 27.9375 C-26.86268694 21.84487555 -34.03453392 19.35038419 -42.6875 19 C-51.42162583 19.25555962 -59.08222957 22.1223386 -65.3125 28.3125 C-71.05684281 35.55037194 -73.60612185 41.57648034 -73.63134766 50.86645508 C-73.64139328 51.71574585 -73.6514389 52.56503662 -73.66178894 53.44006348 C-73.69259252 56.23737941 -73.70964823 59.03459975 -73.7265625 61.83203125 C-73.74527642 63.77545492 -73.76485 65.71887049 -73.7852478 67.66227722 C-73.83655133 72.77004211 -73.87618664 77.87783333 -73.91339111 82.98571777 C-73.95344185 88.20083116 -74.00452934 93.41583514 -74.0546875 98.63085938 C-74.15142583 108.85800367 -74.23481706 119.08519319 -74.3125 129.3125 C-84.5425 129.3125 -94.7725 129.3125 -105.3125 129.3125 C-105.3125 84.4325 -105.3125 39.5525 -105.3125 -6.6875 C-95.0825 -6.6875 -84.8525 -6.6875 -74.3125 -6.6875 C-73.8175 1.2325 -73.8175 1.2325 -73.3125 9.3125 C-72.3225 8.11625 -71.3325 6.92 -70.3125 5.6875 C-52.37908215 -14.69465764 -21.48247044 -16.13630177 0 0 Z " fill="#05285A" transform="translate(1191.3125,344.6875)"/>
<path d="M0 0 C2.81419344 2.54213987 5.45349225 5.19081524 8 8 C4.25816067 12.58375318 0.40956067 16.46528155 -4.09765625 20.2890625 C-6.72016944 22.64770886 -8.83241658 25.22278374 -11 28 C-14.07450626 26.65199833 -15.87510719 25.21055411 -18.0625 22.6875 C-24.5020417 16.01100547 -33.5200041 12.94960715 -42.63598633 12.70800781 C-50.86888026 12.62814142 -56.64597842 13.05416794 -63 18.8125 C-64.47670499 22.04279216 -64.36936103 24.49107022 -64 28 C-62.00249444 33.24345209 -57.87751634 35.65378297 -53 38 C-48.37114337 39.42426358 -43.67109498 40.4249793 -38.9375 41.4375 C-22.06324119 45.2519271 -5.65415054 49.01903288 4.78515625 64.02734375 C10.64233251 73.53819267 11.75829498 85.58085287 9.19921875 96.37890625 C5.37629299 107.50611627 -1.60590326 115.55653985 -12 121 C-13.3303125 121.804375 -13.3303125 121.804375 -14.6875 122.625 C-31.10485795 129.43975236 -54.15163157 129.55094007 -71.04296875 124 C-73.80951928 122.81377805 -76.38514661 121.48967405 -79 120 C-80.36898437 119.24203125 -80.36898437 119.24203125 -81.765625 118.46875 C-88.61130496 114.41488365 -95.27055424 109.47586954 -100 103 C-100.12109375 101.03515625 -100.12109375 101.03515625 -99 99 C-97.1457321 97.09094036 -95.31692783 95.35927882 -93.3125 93.625 C-92.21916317 92.65334307 -91.1267062 91.68069512 -90.03515625 90.70703125 C-89.51066895 90.24248535 -88.98618164 89.77793945 -88.44580078 89.29931641 C-85.85465403 86.97069719 -83.42843581 84.49589236 -81 82 C-77.70916598 83.3961114 -76.04435757 84.93746607 -73.875 87.75 C-67.90520478 94.76578498 -60.19299779 99.11923374 -51 100 C-40.52639885 100.73822739 -32.30251522 100.15043685 -23.4375 94.3125 C-21.25810563 90.80651776 -20.61913195 87.10645008 -21 83 C-23.70440663 77.10350685 -28.12041723 75.0901941 -33.94628906 72.72314453 C-39.71410328 70.69220472 -45.76562664 69.5433566 -51.72265625 68.20703125 C-67.79921398 64.58754904 -80.8416205 59.82125673 -91 46 C-96.11690149 36.79668412 -96.54411543 25.0676369 -94.31640625 14.87109375 C-89.74280896 2.74441879 -80.7846781 -5.23193426 -69.296875 -10.67578125 C-46.05343421 -20.01171303 -19.73158594 -14.76103376 0 0 Z " fill="#05295A" transform="translate(898,349)"/>
<path d="M0 0 C3.2175128 2.4131346 5.74106929 4.61160393 8 8 C7.7279796 11.72814098 5.8282621 13.54607302 3.25390625 16.109375 C2.49916016 16.86347656 1.74441406 17.61757813 0.96679688 18.39453125 C0.17337891 19.17183594 -0.62003906 19.94914062 -1.4375 20.75 C-2.22705078 21.54277344 -3.01660156 22.33554687 -3.83007812 23.15234375 C-9.73309085 29 -9.73309085 29 -12 29 C-12.99726162 27.82358958 -13.94744867 26.60712043 -14.875 25.375 C-20.50272651 18.73263097 -28.41291191 15.01992234 -37 14 C-47.90088284 13.10217756 -47.90088284 13.10217756 -57.5078125 17.58203125 C-59.67272088 19.63926094 -60.98629297 21.16162031 -62 24 C-61.90354821 29.40130039 -60.61176769 32.08044689 -57 36 C-49.26259942 40.8527251 -39.80061824 42.28848408 -31.01513672 44.19750977 C-17.23331093 47.2122103 -2.73503218 52.05309378 6.1171875 63.8125 C12.27103197 74.9714713 12.96966744 86.84811979 10.29296875 99.28515625 C9.40073881 101.74163614 8.39006351 103.79148788 7 106 C6.57589844 106.69867188 6.15179687 107.39734375 5.71484375 108.1171875 C-1.57536732 118.87989465 -13.49294344 125.33962783 -26 128 C-30.65428151 128.39003723 -35.26972939 128.37507065 -39.9375 128.3125 C-41.73477539 128.31733398 -41.73477539 128.31733398 -43.56835938 128.32226562 C-65.58907128 128.19026136 -80.73964144 120.63326847 -96.19921875 105.1015625 C-98 103 -98 103 -98 101 C-96.6015625 99.58984375 -96.6015625 99.58984375 -94.625 97.9375 C-90.39089989 94.35885667 -86.33700712 90.61597803 -82.296875 86.8203125 C-80.08148794 85.06458058 -78.75879044 84.39230506 -76 84 C-75.21625 85.010625 -74.4325 86.02125 -73.625 87.0625 C-65.43927372 96.49138565 -56.07768869 100.46799329 -43.7734375 101.34765625 C-35.67743769 101.72305587 -28.37851936 101.63358279 -22 96 C-19.4072388 93.0143962 -19.04698256 91.43850389 -18.625 87.5 C-19.04698256 83.56149611 -19.4072388 81.9856038 -22 79 C-28.65218375 73.8207998 -36.75902952 72.37153503 -44.77929688 70.51806641 C-60.78181065 66.78485024 -77.44968887 62.47336534 -87.57421875 48.3984375 C-93.3888921 38.61704178 -94.1641797 28.91073051 -91.9375 18 C-88.98340157 7.24652956 -81.69193831 -0.9753449 -72.24609375 -6.65625 C-49.05321035 -18.99353348 -20.94097867 -15.42274781 0 0 Z " fill="#04AB81" transform="translate(1924,348)"/>
<path d="M0 0 C6.29195096 4.9774542 11.71420355 10.20184011 16 17 C14.58214502 20.40073025 12.98171518 22.05703464 10.0078125 24.19921875 C9.22019531 24.76833984 8.43257812 25.33746094 7.62109375 25.92382812 C6.79738281 26.50583984 5.97367188 27.08785156 5.125 27.6875 C4.30902344 28.28111328 3.49304687 28.87472656 2.65234375 29.48632812 C-4.01017844 34.25225957 -4.01017844 34.25225957 -8 35 C-8.32871094 34.49210937 -8.65742187 33.98421875 -8.99609375 33.4609375 C-14.61164416 25.33436862 -21.39735986 20.71152477 -31.05078125 18.4765625 C-43.62184823 16.44521128 -53.46814679 18.84353335 -63.875 26.1875 C-70.9068902 32.0474085 -76.20907129 41.38013149 -77.30175781 50.52563477 C-77.43793945 53.29541797 -77.46748788 56.03957266 -77.4375 58.8125 C-77.42992676 59.78791748 -77.42235352 60.76333496 -77.41455078 61.76831055 C-77.25320297 68.80931697 -76.49313072 74.77076379 -73 81 C-72.55269531 81.804375 -72.10539062 82.60875 -71.64453125 83.4375 C-66.30838014 92.13556936 -58.95335085 98.28334791 -49 101 C-39.66231659 102.21551809 -30.09683422 102.24103698 -22 97 C-21.22269531 96.55269531 -20.44539063 96.10539062 -19.64453125 95.64453125 C-14.39342011 92.44932007 -11.23367666 89.21560751 -8 84 C-4.12809906 84.63458709 -1.51680468 86.48846737 1.6875 88.6875 C2.73808594 89.40292969 3.78867188 90.11835938 4.87109375 90.85546875 C5.90363281 91.56316406 6.93617187 92.27085937 8 93 C9.74811174 94.16949411 11.49786697 95.33653924 13.25 96.5 C14.5 97.33333333 15.75 98.16666667 17 99 C16.51666168 103.29862587 13.77559668 105.86202641 10.9375 108.875 C10.44016357 109.40802734 9.94282715 109.94105469 9.43041992 110.49023438 C3.41210876 116.8234628 -2.96190111 121.53455844 -11 125 C-11.83402344 125.36222656 -12.66804688 125.72445312 -13.52734375 126.09765625 C-20.41350472 128.85409658 -26.61790213 129.79295087 -34 130 C-34.7719873 130.03641602 -35.54397461 130.07283203 -36.33935547 130.11035156 C-55.45695663 130.97718126 -70.40803904 127.5403848 -85.1875 114.625 C-94.78177532 105.63224664 -101.1960008 96.25587197 -106 84 C-106.25515381 83.40687012 -106.51030762 82.81374023 -106.77319336 82.20263672 C-109.4887147 75.23089552 -109.41108025 68.53034826 -109.3125 61.125 C-109.31572266 59.92230469 -109.31894531 58.71960938 -109.32226562 57.48046875 C-109.25883777 46.85918583 -108.34325892 37.34127538 -103.3125 27.875 C-102.78076172 26.84826172 -102.78076172 26.84826172 -102.23828125 25.80078125 C-99.36143417 20.38614406 -96.12381381 15.55452326 -92 11 C-91.41992188 10.32839844 -90.83984375 9.65679687 -90.2421875 8.96484375 C-67.02439749 -16.24443034 -27.75437991 -18.85547229 0 0 Z " fill="#04AB81" transform="translate(1653,346)"/>
<path d="M0 0 C10.89 0 21.78 0 33 0 C33.09060771 18.09052542 33.16415975 36.18085446 33.20724869 54.27154446 C33.22779538 62.67305617 33.25576316 71.07441595 33.30175781 79.47583008 C33.34186929 86.80617083 33.36749002 94.13640144 33.37635398 101.46684891 C33.38152802 105.34135946 33.39351975 109.21555518 33.42292023 113.08996391 C33.60518774 138.10901063 33.12287936 161.50676109 14.62109375 180.65625 C10.73921342 184.12737995 6.62574412 186.64669311 2 189 C1.01 189.556875 0.02 190.11375 -1 190.6875 C-10.30681269 194.75923055 -18.7513121 195.49301374 -28.875 195.4375 C-30.16019531 195.45748047 -31.44539062 195.47746094 -32.76953125 195.49804688 C-50.78178858 195.4889036 -64.713224 187.9909901 -77.4453125 175.625 C-83.00293511 169.73818023 -83.00293511 169.73818023 -82.9921875 167.03515625 C-79.11133935 159.07483386 -68.12217013 149.72117046 -60 146 C-59.45472656 146.72445312 -58.90945313 147.44890625 -58.34765625 148.1953125 C-51.9764786 156.36348897 -45.59647347 163.17302182 -35 165 C-25.54407705 165.93536178 -17.6480721 164.15793807 -10.125 158.1875 C-3.62941399 152.07400729 -1.36599808 144.7324204 -0.80613327 135.96357536 C-0.71490696 132.38073097 -0.68726103 128.80251247 -0.68115234 125.21850586 C-0.67183752 123.84773172 -0.66166658 122.47696318 -0.65071106 121.10620117 C-0.62357192 117.41058278 -0.6083098 113.71500217 -0.59528303 110.01931071 C-0.57958154 106.14756011 -0.55281395 102.27588586 -0.5272522 98.40419006 C-0.48058805 91.08403823 -0.44378437 83.76387183 -0.41057932 76.44364792 C-0.37227022 68.10497736 -0.32288327 59.76638371 -0.27259517 51.42777812 C-0.16945932 34.28523555 -0.08160171 17.14266066 0 0 Z " fill="#082A5B" transform="translate(744,281)"/>
<path d="M0 0 C9.9 0 19.8 0 30 0 C30 11.55 30 23.1 30 35 C40.89 35 51.78 35 63 35 C63 43.58 63 52.16 63 61 C52.11 61 41.22 61 30 61 C30.06181899 73.06858899 30.06181899 73.06858899 30.16015625 85.13671875 C30.20839364 90.06331671 30.25247471 94.98969291 30.27099609 99.91650391 C30.28620901 103.89142474 30.32073543 107.865763 30.36830902 111.84042358 C30.38307534 113.35211099 30.39103828 114.86388159 30.39188385 116.37564087 C30.36894019 128.91467788 30.36894019 128.91467788 36.409729 139.62597656 C41.36138391 143.90429762 49.34386344 143.25430175 55.5 143.125 C59.7075 143.063125 59.7075 143.063125 64 143 C64 152.24 64 161.48 64 171 C58.33484913 172.41628772 52.81934497 172.26562021 47 172.3125 C45.83082031 172.34150391 44.66164063 172.37050781 43.45703125 172.40039062 C31.87371809 172.48395504 21.61985778 170.05937375 13 162 C2.81190079 151.93036706 -0.18264088 138.92502307 -0.34057617 124.89306641 C-0.3509811 121.96208154 -0.32425053 119.0323545 -0.29296875 116.1015625 C-0.28735606 114.52973847 -0.2830939 112.95790909 -0.28010559 111.38607788 C-0.26878821 107.29916243 -0.23943839 103.2125797 -0.20599365 99.12579346 C-0.17500574 94.93547056 -0.16153964 90.74509257 -0.14648438 86.5546875 C-0.11455236 78.36962384 -0.06189614 70.18489195 0 62 C-6.93 62 -13.86 62 -21 62 C-21 53.09 -21 44.18 -21 35 C-14.07 35 -7.14 35 0 35 C0 23.45 0 11.9 0 0 Z " fill="#06AC82" transform="translate(1969,303)"/>
<path d="M0 0 C3.993901 0.99847525 6.81835906 2.55150728 10.25 4.6875 C11.60585064 5.51583101 12.96269031 6.34254449 14.3203125 7.16796875 C15.06700195 7.62220215 15.81369141 8.07643555 16.58300781 8.54443359 C21.06814075 11.24548032 25.59873402 13.86867512 30.125 16.5 C36.78201911 20.37398437 43.43659744 24.25186067 50.078125 28.15234375 C50.67580688 28.50331116 51.27348877 28.85427856 51.88928223 29.21588135 C54.32858969 30.64835947 56.76787169 32.08088089 59.20703125 33.51361084 C65.86779175 37.42472171 72.53700318 41.31982364 79.234375 45.16796875 C79.81865265 45.5038652 80.4029303 45.83976166 81.00491333 46.18583679 C83.75548123 47.7663482 86.5078979 49.34349666 89.26318359 50.91577148 C95.96654584 54.75930211 102.51662379 58.79607254 109 63 C105.81588857 66.51714853 102.24245676 68.84301427 98.171875 71.1953125 C97.17976013 71.7788726 97.17976013 71.7788726 96.16760254 72.3742218 C94.75896643 73.20209557 93.34876533 74.02731136 91.93713379 74.85006714 C88.27382831 76.98549596 84.62194177 79.14029967 80.96875 81.29296875 C80.25930237 81.71032791 79.54985474 82.12768707 78.81890869 82.55769348 C73.91640552 85.445805 69.05507809 88.3894736 64.25 91.4375 C58.79557485 94.89152653 53.291795 98.25028915 47.75 101.5625 C39.84319953 106.29197732 31.94437176 111.03426882 24.06188965 115.8041687 C22.82578356 116.55156811 21.5890615 117.29794986 20.35168457 118.04324341 C12.42270899 122.78804693 12.42270899 122.78804693 4.80078125 128.00390625 C2 130 2 130 0 130 C0 87.1 0 44.2 0 0 Z " fill="#04AA81" transform="translate(405,296)"/>
<path d="M0 0 C8.98105055 6.16916967 14.5129282 14.45159524 17.390625 24.9921875 C19.42659375 37.09752109 18.77670358 50.02932431 12.26953125 60.67578125 C5.4511431 69.98870165 -2.96377883 75.79487803 -14.10546875 78.98828125 C-21.24632624 79.81025046 -27.35674456 79.50730365 -34.10546875 76.98828125 C-35.21921875 76.57578125 -36.33296875 76.16328125 -37.48046875 75.73828125 C-47.90748106 71.11172612 -54.92744496 62.45233174 -59.10546875 51.98828125 C-62.58618046 41.63378994 -62.7326127 29.51956198 -58.3671875 19.41015625 C-52.63391987 8.40512241 -45.73911631 0.70409818 -34.10546875 -4.01171875 C-22.46542555 -7.31856627 -10.36409995 -6.02058891 0 0 Z " fill="#FAFBFC" transform="translate(1015.10546875,369.01171875)"/>
<path d="M0 0 C7.87875 -0.061875 15.7575 -0.12375 23.875 -0.1875 C26.34210449 -0.21481201 28.80920898 -0.24212402 31.35107422 -0.27026367 C33.33560702 -0.2790364 35.32014528 -0.28667847 37.3046875 -0.29296875 C38.31152588 -0.30831665 39.31836426 -0.32366455 40.35571289 -0.33947754 C51.97912813 -0.34371863 60.35061424 2.57678382 68.72265625 10.6640625 C76.45621209 18.98666068 76.79484423 28.31494357 76.46875 39.12890625 C75.87646235 47.72530336 71.92596937 53.37149458 66 59.375 C52.9270132 69.60633897 38.36764805 68.62054863 22.625 68.3125 C15.15875 68.209375 7.6925 68.10625 0 68 C0 45.56 0 23.12 0 0 Z " fill="#F9FCFC" transform="translate(1276,311)"/>
<path d="M0 0 C1.04067123 0.00142502 2.08134247 0.00285004 3.15354919 0.00431824 C4.33139481 0.00124161 5.50924042 -0.00183502 6.72277832 -0.00500488 C7.99987167 0.00218063 9.27696503 0.00936615 10.59275818 0.01676941 C12.5493058 0.01745674 12.5493058 0.01745674 14.54537964 0.01815796 C17.30691341 0.01972283 20.06831756 0.02801349 22.82981873 0.04142761 C26.37655147 0.05843417 29.92314188 0.06224149 33.46991062 0.06148243 C36.84421235 0.06181905 40.218467 0.07065278 43.59275818 0.07926941 C44.87187576 0.08038223 46.15099335 0.08149506 47.46887207 0.0826416 C48.64356552 0.08902145 49.81825897 0.09540131 51.02854919 0.10197449 C52.06842484 0.10578629 53.10830048 0.10959808 54.1796875 0.11352539 C56.52635193 0.24723816 56.52635193 0.24723816 57.52635193 1.24723816 C57.62035863 3.21092969 57.64378574 5.17803015 57.63987732 7.14396667 C57.63980179 8.40519852 57.63972626 9.66643036 57.63964844 10.96588135 C57.63454103 12.3526361 57.62932502 13.73939045 57.62400818 15.12614441 C57.62214394 16.53719025 57.62072007 17.94823673 57.61972046 19.35928345 C57.61589572 23.07964351 57.60606583 26.79996476 57.59501648 30.52030945 C57.58480141 34.31404597 57.58022263 38.10778874 57.57518005 41.90153503 C57.56444351 49.35012047 57.54736763 56.79867388 57.52635193 64.24723816 C49.59021406 64.2703658 41.65409017 64.28815539 33.71792698 64.29905033 C30.03320695 64.30427824 26.3485099 64.31137421 22.6638031 64.32267761 C19.11064362 64.33350978 15.5575063 64.33951569 12.00433159 64.3421154 C10.64589527 64.34396906 9.28746021 64.34758854 7.92903328 64.35296822 C6.03252969 64.36018291 4.136004 64.36064625 2.23948669 64.36076355 C0.61732994 64.36409447 0.61732994 64.36409447 -1.03759766 64.36749268 C-3.47364807 64.24723816 -3.47364807 64.24723816 -4.47364807 63.24723816 C-4.57804983 61.3556994 -4.61219698 59.46024753 -4.61891174 57.56584167 C-4.6252916 56.35110672 -4.63167145 55.13637177 -4.63824463 53.88482666 C-4.6397732 52.54859964 -4.64088722 51.2123721 -4.64161682 49.87614441 C-4.6448278 48.51472945 -4.64819175 47.15331485 -4.65170288 45.79190063 C-4.65770024 42.93447571 -4.65954217 40.07708105 -4.65895081 37.21965027 C-4.65884916 33.55299565 -4.67250066 29.8865346 -4.68972301 26.21992588 C-4.70082626 23.40699365 -4.70287053 20.59410845 -4.70234108 17.78115654 C-4.70352376 16.42912567 -4.7079616 15.07709369 -4.71567345 13.7250843 C-4.7254388 11.83609115 -4.72134002 9.94704155 -4.71656799 8.05802917 C-4.71799301 6.98182816 -4.71941803 5.90562714 -4.72088623 4.79681396 C-4.3811802 1.29368852 -3.51558689 0.3513787 0 0 Z " fill="#01AA80" transform="translate(554.4736480712891,328.7527618408203)"/>
<path d="M0 0 C1.06367294 0.00222061 2.12734589 0.00444122 3.22325134 0.00672913 C5.02500572 0.00684242 5.02500572 0.00684242 6.86315918 0.00695801 C8.17042465 0.01211929 9.47769012 0.01728058 10.8245697 0.02259827 C12.16835477 0.02446253 13.51214052 0.02588639 14.85592651 0.02688599 C18.39873622 0.0307105 21.94150515 0.0405402 25.48429871 0.05158997 C29.09706572 0.06180552 32.7098393 0.06638392 36.32261658 0.07142639 C43.41573225 0.08216254 50.50882019 0.09923816 57.60191345 0.12025452 C57.62504109 8.05639239 57.64283069 15.99251627 57.65372562 23.92867947 C57.65895353 27.6133995 57.6660495 31.29809654 57.67735291 34.98280334 C57.68818507 38.53596283 57.69419098 42.08910014 57.6967907 45.64227486 C57.69864435 47.00071118 57.70226383 48.35914623 57.70764351 49.71757317 C57.7148582 51.61407675 57.71532154 53.51060245 57.71543884 55.40711975 C57.71765945 56.48855759 57.71988007 57.56999542 57.72216797 58.6842041 C57.60191345 61.12025452 57.60191345 61.12025452 56.60191345 62.12025452 C54.76618715 62.21930604 52.9266377 62.24824659 51.08824158 62.24964905 C49.91032043 62.25280121 48.73239929 62.25595337 47.51878357 62.25920105 C46.23652893 62.25717682 44.95427429 62.25515259 43.63316345 62.25306702 C42.32738342 62.25402374 41.02160339 62.25498047 39.67625427 62.25596619 C36.90878623 62.25744285 34.14135041 62.25528963 31.37388611 62.25062561 C27.81928696 62.24492832 24.26476331 62.2482075 20.71016693 62.25419807 C17.33032631 62.25867198 13.95050622 62.25554338 10.57066345 62.25306702 C9.28840881 62.25509125 8.00615417 62.25711548 6.68504333 62.25920105 C4.91816162 62.25447281 4.91816162 62.25447281 3.11558533 62.24964905 C2.07269348 62.24885345 1.02980164 62.24805786 -0.04469299 62.24723816 C-2.39808655 62.12025452 -2.39808655 62.12025452 -3.39808655 61.12025452 C-3.49719215 59.25389664 -3.52607916 57.38377257 -3.52748108 55.51478577 C-3.53063324 54.31684387 -3.5337854 53.11890198 -3.53703308 51.88465881 C-3.53500885 50.5805304 -3.53298462 49.27640198 -3.53089905 47.93275452 C-3.53157215 46.59136436 -3.53254223 45.24997433 -3.53379822 43.90858459 C-3.5352749 41.0940383 -3.53312159 38.2795237 -3.52845764 35.46498108 C-3.52276035 31.84984821 -3.52603952 28.23478957 -3.53203011 24.61965942 C-3.53563652 21.8488051 -3.53449677 19.07796849 -3.53190231 16.30711365 C-3.53090688 14.32335868 -3.53395396 12.33960304 -3.53703308 10.35585022 C-3.53388092 9.15790833 -3.53072876 7.95996643 -3.52748108 6.72572327 C-3.52668549 5.66506653 -3.52588989 4.60440979 -3.52507019 3.51161194 C-3.35361825 0.28282694 -3.23017111 0.16198025 0 0 Z " fill="#FDA31E" transform="translate(554.3980865478516,429.87974548339844)"/>
<path d="M0 0 C1.15782486 -0.00315216 2.31564972 -0.00630432 3.50856018 -0.009552 C4.76377975 -0.00752777 6.01899933 -0.00550354 7.31225586 -0.00341797 C8.5944249 -0.00437469 9.87659393 -0.00533142 11.19761658 -0.00631714 C13.91203006 -0.00779218 16.62641065 -0.00564541 19.34082031 -0.00097656 C22.82701002 0.00472632 26.31312284 0.001437 29.79930973 -0.00454903 C33.11613135 -0.00902201 36.43293205 -0.00589476 39.74975586 -0.00341797 C41.63562157 -0.00645432 41.63562157 -0.00645432 43.55958557 -0.009552 C45.29159462 -0.00482376 45.29159462 -0.00482376 47.05859375 0 C48.0807045 0.00079559 49.10281525 0.00159119 50.15589905 0.00241089 C52.46459961 0.12939453 52.46459961 0.12939453 53.46459961 1.12939453 C53.56365113 2.96512084 53.59259168 4.80467028 53.59399414 6.64306641 C53.5971463 7.82098755 53.60029846 8.99890869 53.60354614 10.21252441 C53.60152191 11.49477905 53.59949768 12.77703369 53.59741211 14.09814453 C53.59836884 15.40392456 53.59932556 16.70970459 53.60031128 18.05505371 C53.60178794 20.82252175 53.59963472 23.58995757 53.5949707 26.35742188 C53.58927341 29.91202102 53.59255259 33.46654468 53.59854317 37.02114105 C53.60301708 40.40098167 53.59988847 43.78080177 53.59741211 47.16064453 C53.59943634 48.44289917 53.60146057 49.72515381 53.60354614 51.04626465 C53.5988179 52.81314636 53.5988179 52.81314636 53.59399414 54.61572266 C53.59319855 55.6586145 53.59240295 56.70150635 53.59158325 57.77600098 C53.46459961 60.12939453 53.46459961 60.12939453 52.46459961 61.12939453 C50.6288733 61.22844605 48.78932386 61.2573866 46.95092773 61.25878906 C45.77300659 61.26194122 44.59508545 61.26509338 43.38146973 61.26834106 C42.09921509 61.26631683 40.81696045 61.2642926 39.49584961 61.26220703 C38.19006958 61.26316376 36.88428955 61.26412048 35.53894043 61.2651062 C32.77147239 61.26658286 30.00403657 61.26442964 27.23657227 61.25976562 C23.68197312 61.25406834 20.12744946 61.25734751 16.57285309 61.26333809 C13.19301247 61.267812 9.81319237 61.26468339 6.43334961 61.26220703 C5.15109497 61.26423126 3.86884033 61.26625549 2.54772949 61.26834106 C0.78084778 61.26361282 0.78084778 61.26361282 -1.02172852 61.25878906 C-2.06462036 61.25799347 -3.10751221 61.25719788 -4.18200684 61.25637817 C-6.53540039 61.12939453 -6.53540039 61.12939453 -7.53540039 60.12939453 C-7.62921341 58.28821424 -7.65283993 56.44341812 -7.64892578 54.59985352 C-7.64885025 53.41870468 -7.64877472 52.23755585 -7.6486969 51.02061462 C-7.64353561 49.73522293 -7.63837433 48.44983124 -7.63305664 47.12548828 C-7.63164169 45.81733658 -7.63022675 44.50918488 -7.62876892 43.16139221 C-7.62494449 39.67776594 -7.61511486 36.19418114 -7.60406494 32.71057129 C-7.59384921 29.15812745 -7.58927096 25.60567694 -7.58422852 22.05322266 C-7.57349251 15.07859621 -7.55641699 8.10399736 -7.53540039 1.12939453 C-4.90463414 -0.18598859 -2.94593708 0.00229128 0 0 Z " fill="#06AA81" transform="translate(463.535400390625,430.87060546875)"/>
<path d="M0 0 C1.18797432 0.00212242 1.18797432 0.00212242 2.39994812 0.00428772 C4.91641094 0.00986168 7.43278306 0.02240932 9.94921875 0.03515625 C11.660806 0.04017462 13.37239466 0.04473694 15.08398438 0.04882812 C19.26826383 0.05982257 23.45247594 0.07706918 27.63671875 0.09765625 C27.67915016 2.48456462 27.7100182 4.87070683 27.734375 7.2578125 C27.74746704 7.92768188 27.76055908 8.59755127 27.77404785 9.28771973 C27.84306124 18.3229529 24.6996166 24.84843737 18.55859375 31.34375 C9.62967119 39.49229925 -0.34411679 40.83834056 -12.01953125 40.546875 C-19.19639205 40.05991762 -23.08816601 36.48652725 -27.86328125 31.47265625 C-30.9965437 26.51165738 -31.00643874 20.81360523 -30.36328125 15.09765625 C-26.80057562 7.83521785 -20.82392444 3.81061741 -13.36328125 1.09765625 C-8.92640257 -0.06011263 -4.55328883 -0.03085516 0 0 Z " fill="#F7FCFB" transform="translate(1746.36328125,411.90234375)"/>
<path d="M0 0 C6.1254973 5.06019342 11.58468433 10.6451846 13.875 18.375 C13.875 20.685 13.875 22.995 13.875 25.375 C-8.565 25.375 -31.005 25.375 -54.125 25.375 C-51.93363248 14.41816238 -48.85342135 7.30228121 -39.5625 0.875 C-38.09736396 0.01723846 -36.6192092 -0.81894953 -35.125 -1.625 C-34.09375 -2.24375 -33.0625 -2.8625 -32 -3.5 C-21.88744583 -7.46016107 -9.30527498 -4.83874299 0 0 Z " fill="#F8FCFB" transform="translate(1483.125,365.625)"/>
<path d="M0 0 C1.4589418 0.03330917 1.4589418 0.03330917 2.94735718 0.06729126 C4.04834747 0.08746307 5.14933777 0.10763489 6.28369141 0.12841797 C7.4764267 0.16061432 8.66916199 0.19281067 9.89804077 0.22598267 C11.72496964 0.26352158 11.72496964 0.26352158 13.58880615 0.30181885 C17.49163873 0.38420854 21.39397953 0.48072562 25.29647827 0.57754517 C27.93708296 0.63576526 30.57770804 0.69306893 33.21835327 0.74942017 C39.70300245 0.88981564 46.18730283 1.04182148 52.67147827 1.20254517 C52.67147827 1.53254517 52.67147827 1.86254517 52.67147827 2.20254517 C34.19147827 2.53254517 15.71147827 2.86254517 -3.32852173 3.20254517 C-3.32852173 23.00254517 -3.32852173 42.80254517 -3.32852173 63.20254517 C-3.65852173 63.20254517 -3.98852173 63.20254517 -4.32852173 63.20254517 C-4.37481118 55.28368939 -4.41037355 47.36488991 -4.43214607 39.44593239 C-4.44259447 35.76905167 -4.45677275 32.09226333 -4.47940063 28.41543579 C-4.50109163 24.86874861 -4.5130824 21.32215044 -4.51827621 17.77540207 C-4.52197873 16.42057264 -4.52920862 15.06574822 -4.53998184 13.71095657 C-4.55444621 11.81708759 -4.55533822 9.92312952 -4.55557251 8.02920532 C-4.56223434 6.41037949 -4.56223434 6.41037949 -4.56903076 4.7588501 C-4.24911106 1.35851084 -3.45371796 0.30041973 0 0 Z " fill="#39B998" transform="translate(554.3285217285156,328.7974548339844)"/>
<path d="M0 0 C0.33 0 0.66 0 1 0 C1.33 17.82 1.66 35.64 2 54 C5.68224061 54.73644812 8.5755787 55.14151129 12.24926758 55.20532227 C13.26994827 55.22526749 14.29062897 55.24521271 15.34223938 55.26576233 C16.4319957 55.28247482 17.52175201 55.29918732 18.64453125 55.31640625 C19.7694548 55.33718735 20.89437836 55.35796844 22.0533905 55.37937927 C25.6396994 55.44465792 29.22608027 55.50365899 32.8125 55.5625 C35.24675217 55.60570583 37.68099712 55.64932078 40.11523438 55.69335938 C46.07674728 55.8003171 52.03833146 55.9021235 58 56 C58 56.33 58 56.66 58 57 C38.86 57 19.72 57 0 57 C0 38.19 0 19.38 0 0 Z " fill="#01A074" transform="translate(457,434)"/>
<path d="M0 0 C0.495 0.99 0.495 0.99 1 2 C-0.01578125 2.03738281 -1.0315625 2.07476562 -2.078125 2.11328125 C-9.85423968 2.4640264 -16.95521038 3.16582159 -24.44921875 5.4765625 C-27.29807893 6.06116781 -29.21456403 5.75282053 -32 5 C-22.95995758 -1.02669495 -10.45428247 -0.39533001 0 0 Z " fill="#2A446F" transform="translate(861,334)"/>
<path d="M0 0 C3.83736322 0.95934081 4.59660228 1.23609263 7 4 C6.360625 4.28875 5.72125 4.5775 5.0625 4.875 C2.84793921 5.82823451 2.84793921 5.82823451 2 8 C1.84308093 10.76931368 1.74156866 13.51734107 1.68359375 16.2890625 C1.66281265 17.10748627 1.64203156 17.92591003 1.62062073 18.76913452 C1.55515188 21.38766966 1.49625274 24.00630639 1.4375 26.625 C1.39431224 28.39844807 1.35069786 30.17188581 1.30664062 31.9453125 C1.19947324 36.29677046 1.09819831 40.64833077 1 45 C0.67 45 0.34 45 0 45 C0 30.15 0 15.3 0 0 Z " fill="#0BA67B" transform="translate(406,297)"/>
<path d="M0 0 C3.83206182 0.41427695 6.08025204 1.51280729 9 4 C8.67 4.99 8.34 5.98 8 7 C7.071875 6.95875 6.14375 6.9175 5.1875 6.875 C1.84190281 6.72863661 1.84190281 6.72863661 -1 9 C-1.99 8.67 -2.98 8.34 -4 8 C-1.125 1.125 -1.125 1.125 0 0 Z " fill="#08A079" transform="translate(1499,432)"/>
<path d="M0 0 C-2 2 -2 2 -3.98364258 2.24291992 C-4.77923584 2.23881104 -5.5748291 2.23470215 -6.39453125 2.23046875 C-7.26787109 2.22853516 -8.14121094 2.22660156 -9.04101562 2.22460938 C-9.95560547 2.21236328 -10.87019531 2.20011719 -11.8125 2.1875 C-12.71548828 2.18685547 -13.61847656 2.18621094 -14.54882812 2.18554688 C-18.81415522 2.15734119 -22.84563988 2.0886688 -27 1 C-27 0.67 -27 0.34 -27 0 C-18.14065276 -1.64825065 -8.85934724 -1.64825065 0 0 Z " fill="#213D6A" transform="translate(1006,335)"/>
<path d="M0 0 C-0.60473145 0.05534912 -1.20946289 0.11069824 -1.83251953 0.16772461 C-4.59689466 0.42203865 -7.36094407 0.67974082 -10.125 0.9375 C-11.55199219 1.06801758 -11.55199219 1.06801758 -13.0078125 1.20117188 C-16.9076427 1.56678096 -20.70629451 1.94287267 -24.5546875 2.69140625 C-25.76511719 2.84416016 -25.76511719 2.84416016 -27 3 C-27.66 2.34 -28.32 1.68 -29 1 C-20.40465652 -1.64472107 -8.01138752 -5.34092501 0 0 Z " fill="#31B993" transform="translate(1890,336)"/>
<path d="M0 0 C-2.52019972 0.33885038 -5.04098516 0.67120335 -7.5625 1 C-8.61920898 1.14308594 -8.61920898 1.14308594 -9.69726562 1.2890625 C-14.15280599 1.86397093 -18.49891421 2.27244908 -23 2 C-23.66 1.34 -24.32 0.68 -25 0 C-17.35976377 -2.07192847 -6.92964618 -4.61976412 0 0 Z " fill="#28406C" transform="translate(1167,336)"/>
<path d="M0 0 C1.75 0.0625 1.75 0.0625 4 1 C5.73223664 2.94348501 7.39881603 4.94720004 9 7 C9.98290968 8.01680311 10.97334787 9.02738219 12 10 C7.77471908 10 6.95481492 9.74375671 4 7 C4 6.34 4 5.68 4 5 C2.02 5 0.04 5 -2 5 C-1.125 1.125 -1.125 1.125 0 0 Z " fill="#16AF87" transform="translate(1845,432)"/>
<path d="M0 0 C-0.61277612 2.96175123 -1.25372522 4.38058783 -3 7 C-5.49361571 5.79618552 -7.68143083 4.54571278 -10 3 C-9.67 2.01 -9.34 1.02 -9 0 C-2.25 -1.125 -2.25 -1.125 0 0 Z " fill="#13A983" transform="translate(1718,372)"/>
<path d="M0 0 C0 3 0 3 -1.49609375 4.75390625 C-2.13675781 5.35074219 -2.77742187 5.94757813 -3.4375 6.5625 C-6.0896163 9.00289429 -6.0896163 9.00289429 -8 12 C-7.34 12 -6.68 12 -6 12 C-3.8125 14.3125 -3.8125 14.3125 -2 17 C-2.33 17.99 -2.66 18.98 -3 20 C-5.33333333 17.66666667 -7.66666667 15.33333333 -10 13 C-9.80041664 8.93891248 -7.24590088 6.93973606 -4.4375 4.25 C-3.61121094 3.45078125 -2.78492188 2.6515625 -1.93359375 1.828125 C-1.29550781 1.22484375 -0.65742187 0.6215625 0 0 Z " fill="#223B6A" transform="translate(671,437)"/>
<path d="M0 0 C5.69051363 0.5381371 11.34865884 1.1400133 17 2 C17 2.33 17 2.66 17 3 C7.76 3 -1.48 3 -11 3 C-11 2.67 -11 2.34 -11 2 C-7.37 2 -3.74 2 0 2 C0 1.34 0 0.68 0 0 Z " fill="#029D78" transform="translate(563,390)"/>
<path d="M0 0 C1 3 1 3 -0.25 5.75 C-0.8275 6.8225 -1.405 7.895 -2 9 C-3.03819584 11.31848219 -4.016201 13.65762143 -5 16 C-5.99 16 -6.98 16 -8 16 C-6.42986223 10.03347646 -3.24970218 5.17090975 0 0 Z " fill="#25B492" transform="translate(1556,363)"/>
<path d="M0 0 C1.98 0 3.96 0 6 0 C6.66 1.32 7.32 2.64 8 4 C6.625 5.5 6.625 5.5 5 7 C4.34 7 3.68 7 3 7 C2.690625 6.21625 2.38125 5.4325 2.0625 4.625 C1.07124962 2.07669872 1.07124962 2.07669872 0 0 Z " fill="#15B087" transform="translate(1909,370)"/>
<path d="M0 0 C-1.1858237 3.37503669 -2.27573689 5.64722731 -5 8 C-6.32 7.34 -7.64 6.68 -9 6 C-7.8803014 4.99406757 -6.7540588 3.9954151 -5.625 3 C-4.68527344 2.1646875 -4.68527344 2.1646875 -3.7265625 1.3125 C-2 0 -2 0 0 0 Z " fill="#143263" transform="translate(807,443)"/>
<path d="M0 0 C0.66 0.99 1.32 1.98 2 3 C1.09515208 4.15518918 0.1755794 5.29885406 -0.75 6.4375 C-1.26046875 7.07558594 -1.7709375 7.71367187 -2.296875 8.37109375 C-4.19667629 10.18810554 -5.43586908 10.60423197 -8 11 C-7.59007812 10.45730469 -7.18015625 9.91460937 -6.7578125 9.35546875 C-6.21898437 8.64003906 -5.68015625 7.92460937 -5.125 7.1875 C-4.59132812 6.47980469 -4.05765625 5.77210938 -3.5078125 5.04296875 C-2.29185219 3.39543703 -1.13583859 1.70375789 0 0 Z " fill="#1B3868" transform="translate(232,335)"/>
<path d="M0 0 C0.66 0 1.32 0 2 0 C0.6302836 3.99500618 -1.25722422 6.80009492 -4 10 C-4.99 9.67 -5.98 9.34 -7 9 C-5.88266271 7.49428343 -4.75589965 5.99555708 -3.625 4.5 C-2.99851562 3.6646875 -2.37203125 2.829375 -1.7265625 1.96875 C-1.15679687 1.3190625 -0.58703125 0.669375 0 0 Z " fill="#183467" transform="translate(320,222)"/>
<path d="M0 0 C2.16099373 2.16099373 2.71563716 3.5210418 3.6875 6.375 C3.95949219 7.14585937 4.23148438 7.91671875 4.51171875 8.7109375 C5.04278009 11.20055308 4.81115526 12.61553018 4 15 C3.54625 13.88625 3.0925 12.7725 2.625 11.625 C1.27534014 8.03800992 1.27534014 8.03800992 -1 6 C-0.625 2.875 -0.625 2.875 0 0 Z " fill="#4EC5A2" transform="translate(1522,373)"/>
<path d="M0 0 C1.80411967 2.75924185 2.0127245 3.88972103 1.625 7.25 C1.41875 8.1575 1.2125 9.065 1 10 C0.67 10 0.34 10 0 10 C-0.33 12.31 -0.66 14.62 -1 17 C-1.33 17 -1.66 17 -2 17 C-2.25287193 10.93107371 -1.69832609 5.83799592 0 0 Z " fill="#2FBE99" transform="translate(1399,384)"/>
<path d="M0 0 C0 0.33 0 0.66 0 1 C-5.16044765 2.512545 -8.65998179 3.33500455 -14 2 C-9.1289726 -1.2473516 -5.65616983 -1.1838495 0 0 Z " fill="#21BA90" transform="translate(1875,336)"/>
<path d="M0 0 C0 5.18794365 -3.85821874 8.79650084 -7.3125 12.4375 C-7.869375 12.953125 -8.42625 13.46875 -9 14 C-9 10.02785867 -7.56892582 8.89680688 -5.0625 5.875 C-4.33160156 4.98554688 -3.60070312 4.09609375 -2.84765625 3.1796875 C-1 1 -1 1 0 0 Z " fill="#DAE2EB" transform="translate(296,325)"/>
<path d="M0 0 C0.99 0.99 1.98 1.98 3 3 C2.67 3.66 2.34 4.32 2 5 C-2.95 5 -7.9 5 -13 5 C-13 4.67 -13 4.34 -13 4 C-9.04 4 -5.08 4 -1 4 C-0.67 2.68 -0.34 1.36 0 0 Z " fill="#1AB289" transform="translate(1385,467)"/>
<path d="M0 0 C3.33557632 2.9905167 5.15083921 5.93184627 7 10 C6.01 10 5.02 10 4 10 C2.35 7.03 0.7 4.06 -1 1 C-0.67 0.67 -0.34 0.34 0 0 Z " fill="#0FAC84" transform="translate(1407,441)"/>
<path d="M0 0 C0.33 0 0.66 0 1 0 C0.25531915 7.74468085 0.25531915 7.74468085 -3 11 C-3.66 11 -4.32 11 -5 11 C-3.77782954 6.95743617 -2.37245704 3.50711041 0 0 Z " fill="#18B28D" transform="translate(1408,364)"/>
<path d="M0 0 C1.44096586 0.42594588 2.87768712 0.86626633 4.3125 1.3125 C5.11300781 1.55613281 5.91351562 1.79976563 6.73828125 2.05078125 C9.09964573 3.04182023 10.33879993 4.08074943 12 6 C11.01 6.33 10.02 6.66 9 7 C6.73828125 5.8203125 6.73828125 5.8203125 4.3125 4.125 C3.50425781 3.57070313 2.69601562 3.01640625 1.86328125 2.4453125 C1.24839844 1.96835937 0.63351562 1.49140625 0 1 C0 0.67 0 0.34 0 0 Z " fill="#1BB188" transform="translate(1842,402)"/>
<path d="M0 0 C0.66 0.99 1.32 1.98 2 3 C0.35 4.98 -1.3 6.96 -3 9 C-3.99 8.67 -4.98 8.34 -6 8 C-4.02 5.36 -2.04 2.72 0 0 Z " fill="#1A3667" transform="translate(312,232)"/>
<path d="M0 0 C0.33 0.66 0.66 1.32 1 2 C1.66 2.33 2.32 2.66 3 3 C3.625 5.0625 3.625 5.0625 4 7 C4.66 7 5.32 7 6 7 C6.33 7.99 6.66 8.98 7 10 C6.01 10 5.02 10 4 10 C1.09677182 6.35022743 0 4.74147821 0 0 Z " fill="#102C5E" transform="translate(295,471)"/>
<path d="M0 0 C3 1 3 1 4.75 3.3125 C6.14972335 6.32190521 5.95287489 6.98041673 5 10 C4.15801693 8.90241493 3.32669329 7.79664683 2.5 6.6875 C2.0359375 6.07261719 1.571875 5.45773437 1.09375 4.82421875 C0 3 0 3 0 0 Z " fill="#112F62" transform="translate(273,441)"/>
<path d="M0 0 C0.66 0.33 1.32 0.66 2 1 C0.9024777 3.99324263 0.32317108 4.84610901 -2.625 6.25 C-3.40875 6.4975 -4.1925 6.745 -5 7 C-5 6.01 -5 5.02 -5 4 C-2.5 1.8125 -2.5 1.8125 0 0 Z " fill="#13B48C" transform="translate(1766,441)"/>
<path d="M0 0 C0.33 0.66 0.66 1.32 1 2 C0.09515208 3.15518918 -0.8244206 4.29885406 -1.75 5.4375 C-2.26046875 6.07558594 -2.7709375 6.71367187 -3.296875 7.37109375 C-5.19667629 9.18810554 -6.43586908 9.60423197 -9 10 C-8.06409496 8.8944811 -7.12620142 7.79064547 -6.1875 6.6875 C-5.66542969 6.07261719 -5.14335938 5.45773437 -4.60546875 4.82421875 C-3.12827531 3.14575321 -1.59960869 1.56117966 0 0 Z " fill="#1CB48E" transform="translate(1567,351)"/>
<path d="M0 0 C-3.63465602 2.32617985 -6.76036719 2.31404687 -11 2 C-11.66 1.34 -12.32 0.68 -13 0 C-8.38926889 -1.29676812 -4.66159911 -0.71109139 0 0 Z " fill="#183A6D" transform="translate(1155,336)"/>
<path d="M0 0 C0.66 0.99 1.32 1.98 2 3 C1.01 3.33 0.02 3.66 -1 4 C-1.12375 4.804375 -1.2475 5.60875 -1.375 6.4375 C-1.58125 7.283125 -1.7875 8.12875 -2 9 C-2.99 9.495 -2.99 9.495 -4 10 C-4.33 9.01 -4.66 8.02 -5 7 C-4.00390625 5.17578125 -4.00390625 5.17578125 -2.5625 3.3125 C-2.08941406 2.68988281 -1.61632812 2.06726563 -1.12890625 1.42578125 C-0.75636719 0.95527344 -0.38382812 0.48476563 0 0 Z " fill="#1B3666" transform="translate(273,282)"/>
<path d="M0 0 C4.43689776 1.47896592 6.30726126 4.28145603 9 8 C8.67 8.66 8.34 9.32 8 10 C6.66070495 8.71451591 5.32871357 7.42141845 4 6.125 C2.88625 5.04605469 2.88625 5.04605469 1.75 3.9453125 C0 2 0 2 0 0 Z " fill="#0B2455" transform="translate(798,450)"/>
<path d="M0 0 C1.32 0.66 2.64 1.32 4 2 C2.35 3.32 0.7 4.64 -1 6 C-1.99 5.34 -2.98 4.68 -4 4 C-2.68 2.68 -1.36 1.36 0 0 Z " fill="#223A66" transform="translate(817,431)"/>
<path d="M0 0 C7.57142857 4.14285714 7.57142857 4.14285714 10 7 C5.61537866 6.49890042 3.1999003 5.01704885 0 2 C0 1.34 0 0.68 0 0 Z " fill="#0F2C5E" transform="translate(1183,340)"/>
<path d="M0 0 C2.43929746 1.92576115 4.80090595 3.80090595 7 6 C5.02 6.99 5.02 6.99 3 8 C1.02 4.535 1.02 4.535 -1 1 C-0.67 0.67 -0.34 0.34 0 0 Z " fill="#0B2D60" transform="translate(322,510)"/>
<path d="M0 0 C4.31392226 0.4793247 6.16569547 1.7457985 9 5 C4 4 4 4 -1 3 C-0.67 2.01 -0.34 1.02 0 0 Z " fill="#1EAE88" transform="translate(1499,432)"/>
<path d="M0 0 C0.33 0 0.66 0 1 0 C1.36923077 5.53846154 1.36923077 5.53846154 -0.5 7.875 C-1.2425 8.431875 -1.2425 8.431875 -2 9 C-2.99 8.67 -3.98 8.34 -5 8 C-4.19185349 6.66402348 -3.37836819 5.331275 -2.5625 4 C-2.11003906 3.2575 -1.65757813 2.515 -1.19140625 1.75 C-0.79824219 1.1725 -0.40507813 0.595 0 0 Z " fill="#193668" transform="translate(1028,426)"/>
<path d="M0 0 C0.66 0.66 1.32 1.32 2 2 C-2.39453125 6.00390625 -2.39453125 6.00390625 -4 7 C-4.99 6.67 -5.98 6.34 -7 6 C-4.69 4.02 -2.38 2.04 0 0 Z " fill="#193668" transform="translate(819,344)"/>
<path d="M0 0 C0.99 0 1.98 0 3 0 C3.268125 0.598125 3.53625 1.19625 3.8125 1.8125 C4.98493467 3.97224808 6.19369282 5.35790256 8 7 C7.67 7.66 7.34 8.32 7 9 C5.82737096 7.88121617 4.66204862 6.75476949 3.5 5.625 C2.8503125 4.99851562 2.200625 4.37203125 1.53125 3.7265625 C0 2 0 2 0 0 Z " fill="#0CA179" transform="translate(1413,451)"/>
<path d="M0 0 C1.65 0 3.3 0 5 0 C5 2 5 4 5 6 C4.01 5.67 3.02 5.34 2 5 C0.8125 2.4375 0.8125 2.4375 0 0 Z " fill="#14B38A" transform="translate(1350,466)"/>
<path d="M0 0 C0.66 0.99 1.32 1.98 2 3 C1.67 3.99 1.34 4.98 1 6 C0.01 5.67 -0.98 5.34 -2 5 C-2.6875 2.9375 -2.6875 2.9375 -3 1 C-2.01 0.67 -1.02 0.34 0 0 Z " fill="#0A264F" transform="translate(759,454)"/>
<path d="M0 0 C0.66 0.99 1.32 1.98 2 3 C0.35 5.64 -1.3 8.28 -3 11 C-3.33 10.34 -3.66 9.68 -4 9 C-3.22265625 6.8359375 -3.22265625 6.8359375 -2.0625 4.375 C-1.68222656 3.55773437 -1.30195312 2.74046875 -0.91015625 1.8984375 C-0.60980469 1.27195312 -0.30945313 0.64546875 0 0 Z " fill="#D5DCE7" transform="translate(772,439)"/>
<path d="M0 0 C0.66 0.99 1.32 1.98 2 3 C0.68 4.32 -0.64 5.64 -2 7 C-2.99 6.67 -3.98 6.34 -5 6 C-3.35 4.02 -1.7 2.04 0 0 Z " fill="#1EB48F" transform="translate(1697,405)"/>
<path d="M0 0 C-2.25 1.625 -2.25 1.625 -5 3 C-7.3125 2.1875 -7.3125 2.1875 -9 1 C-5.57367167 -0.61798838 -3.61944899 -1.34053666 0 0 Z " fill="#28B591" transform="translate(1729,338)"/>
<path d="M0 0 C4.95 0.99 4.95 0.99 10 2 C10 2.33 10 2.66 10 3 C7.03 3 4.06 3 1 3 C0.67 2.01 0.34 1.02 0 0 Z " fill="#2ABA92" transform="translate(1337,284)"/>
<path d="M0 0 C0.33 0.99 0.66 1.98 1 3 C-0.21484375 4.82421875 -0.21484375 4.82421875 -1.9375 6.6875 C-2.50339844 7.31011719 -3.06929688 7.93273437 -3.65234375 8.57421875 C-4.09707031 9.04472656 -4.54179687 9.51523437 -5 10 C-5 6.60406522 -4.47834052 5.93380119 -2.5 3.3125 C-2.0359375 2.68988281 -1.571875 2.06726563 -1.09375 1.42578125 C-0.7328125 0.95527344 -0.371875 0.48476563 0 0 Z " fill="#D8E0E9" transform="translate(334,275)"/>
<path d="M0 0 C0.66 0.33 1.32 0.66 2 1 C-0.15634036 3.15634036 -2.37098712 4.47793991 -5 6 C-5.66 5.34 -6.32 4.68 -7 4 C-1.7265625 0.77734375 -1.7265625 0.77734375 0 0 Z " fill="#2CBB96" transform="translate(1711,396)"/>
<path d="M0 0 C0.66 0.33 1.32 0.66 2 1 C2 1.66 2 2.32 2 3 C-0.3125 4.6875 -0.3125 4.6875 -3 6 C-3.99 5.67 -4.98 5.34 -6 5 C-4.02 3.35 -2.04 1.7 0 0 Z " fill="#0E2C5B" transform="translate(1130,342)"/>
<path d="M0 0 C-0.33 0.66 -0.66 1.32 -1 2 C-3.97 1.67 -6.94 1.34 -10 1 C-10 0.67 -10 0.34 -10 0 C-6.30458414 -0.95024979 -3.69541586 -0.95024979 0 0 Z " fill="#22BD91" transform="translate(1481,449)"/>
<path d="M0 0 C2.475 0.99 2.475 0.99 5 2 C5 3.98 5 5.96 5 8 C2.74754119 5.31158141 1.11786042 3.35358125 0 0 Z " fill="#203A69" transform="translate(805,390)"/>
<path d="M0 0 C0.99 0 1.98 0 3 0 C3.625 2.3125 3.625 2.3125 4 5 C3.01 6.485 3.01 6.485 2 8 C1.34 5.36 0.68 2.72 0 0 Z " fill="#284470" transform="translate(1174,377)"/>
</svg>
